<?xml version="1.0" standalone="no"?>
<!DOCTYPE svg PUBLIC "-//W3C//DTD SVG 1.1//EN" "http://www.w3.org/Graphics/SVG/1.1/DTD/svg11.dtd" >
<svg xmlns="http://www.w3.org/2000/svg">
<metadata>Generated by IcoMoon</metadata>
<defs>
<font id="mc-icon" horiz-adv-x="1024">
<font-face units-per-em="1024" ascent="960" descent="-64" />
<missing-glyph horiz-adv-x="1024" />
<glyph unicode="&#x20;" horiz-adv-x="512" d="" />
<glyph unicode="&#xe900;" glyph-name="office-phone" d="M1023.459 34.685c0 17.66 0 39.238 0 65.928 0 254.257-91.137 324.873-151.918 362.548-60.734 37.675-58.372 80.016-58.372 80.016s9.331 65.95-44.435 65.95c-53.741 0-46.728-63.57-46.728-98.89 0-35.318-44.411-32.962-44.411-32.962h-170.81c-42.327 0-36.308 40.008-36.308 40.008 0 42.364 13.198 80.040-33.527 80.040-42.050 0-49.065-44.72-49.065-82.396s-25.702-72.972-25.702-72.972-65.434-68.282-105.167-145.968c-39.733-77.707-42.071-230.74-42.071-230.74l-37.372-4.689c-49.065 0-79.445 61.216-79.445 61.216s38.553-29.44 84.122 16.47c45.568 45.933 4.676 82.396-20.446 82.396s-42.65-14.137-56.659-28.251c-14.008-14.137-49.065-25.894-49.065 11.78 0 37.63 44.387 18.826 44.387 18.826s86.459 9.426 86.459 68.283-88.798 37.651-100.468 32.965c-11.67-4.715-46.75-23.563-46.75 14.111 0 37.63 32.718 54.169 51.404 72.993 18.686 18.826 70.691 0 70.691 0l48.486 2.356 109.822 51.79c0 0 18.709 16.494 16.371 42.365-2.34 25.872-32.719 21.182-32.719 21.182s-37.372-18.826-161.225-63.57c-123.852-44.743-142.538-101.223-142.538-131.831 0-30.604 32.718-87.084 32.718-87.084-39.734-61.236 30.379-103.601 30.379-103.601 9.354-138.876 158.887-121.589 158.887-121.589 11.693-20.366 23.386-52.604 56.081-59.677 32.694-7.066 35.056-28.25 35.056-28.25h107.484c0 32.987 49.897 37.631 49.897 37.631h403.423c0 0 4.701-37.631 46.75-37.631s53.741 34.084 53.741 34.084c60.713 0.023 49.043 67.163 49.043 67.163zM616.285 25.868c-107.114 0-193.968 87.479-193.968 195.396 0 107.92 86.831 195.4 193.968 195.4 107.111 0 193.94-87.48 193.94-195.4 0.002-107.915-86.829-195.396-193.94-195.396zM734.027 221.266c0-65.515-52.715-118.625-117.742-118.625s-117.742 53.11-117.742 118.625c0 65.515 52.715 118.625 117.742 118.625s117.742-53.11 117.742-118.625zM161.805 489.777l125.59 53.446c0 0 24.544 9.402 24.544 56.479s50.245 67.094 50.245 67.094 287.443 116.548 332.988 131.852 61.894-3.547 80.602-31.797c18.71-28.25 46.749-9.402 46.749-9.402s126.17 40.033 149.556 54.146c23.362 14.114 0 58.834 0 58.834-39.733 40.008-95.814 89.465-196.306 89.465-100.469 0-144.901-25.896-144.901-25.896s-240.646-120.048-392.541-183.619c-151.895-63.569-163.564-150.678-163.564-195.399 0-110.647 87.038-65.227 87.038-65.203zM968.583 798.624l-146.060-58.859c-28.040-50.599 42.023-32.94 42.049-32.94l134.365 57.668c9.356 45.888-30.354 34.131-30.354 34.131z" />
<glyph unicode="&#xe901;" glyph-name="register" d="M704.996 960h-387.981l0.943-462.405h-170.989l364.166-374.587 359.949 374.587h-164.759zM893.668 65.265h-761.766l-0.886 147.331h-130.866v-200.643c0-45.31-4.645-71.307 48.501-75.953h914.103c49.173 0 61.123 19.976 61.123 72.984v203.612h-130.209v-147.331z" />
<glyph unicode="&#xe902;" glyph-name="recharge" d="M834.648 118.788l-174.787 33.849 49.523 135.399-110.698 76.161 119.438 22.003 96.133-81.24 142.742 159.094-262.18 162.478 329.181 40.619-78.654 101.549h-332.094l93.22 118.473-410.748 71.085 99.045-165.863-393.269-32.723 78.654-116.215 195.178-27.080-230.135-169.248 97.477-138.783 79.251-4.515-150.51-367.831 96.132 33.85 238.875 196.327-42.24 167.557 113.611 10.154 100.502-407.888 445.705 110.011-128.177 258.949-61.175-186.172zM313.202 486.62l180.613 130.884 120.41-130.884h-301.023z" />
<glyph unicode="&#xe903;" glyph-name="survey" d="M979.363 651.050l-285.156 225.839c-48.671 38.505-117.277 34-153.192-10.101l-431.036-529.101c-35.928-44.1-25.65-111.089 23.020-149.672l285.135-225.831c48.704-38.494 117.3-33.978 153.227 10.122l431.022 529.075c35.984 44.090 25.662 111.098-23.020 149.669zM387.654 108.693c-11.018-13.615-40.778-8.209-66.329 12.019-25.594 20.262-37.299 47.701-26.225 61.294 11.096 13.614 40.802 8.222 66.33-12.011 25.572-20.239 37.309-47.67 26.224-61.302zM906.856 482.187l-266.48-327.016c-39.066-48.008-89.472-72.115-112.47-53.814l-280.769 222.308c-23.042 18.229-10.102 71.929 29.042 119.951l266.46 327.086c39.065 47.893 89.48 72.038 112.522 53.798l280.737-222.329c23.033-18.282 10.046-72.026-29.042-119.984zM368.292 959.985c-79.89-2.457-173.748-55.1-250.743-140.643-80.663-89.612-124.283-194.142-116.701-279.521 1.371-15.341 15.096-26.674 30.634-25.344 0.232 0.016 0.431 0.044 0.674 0.076 15.217 1.661 26.391 15.009 25.020 30.148-6.178 69.363 33.187 160.419 102.656 237.628 65.887 73.159 146.463 119.996 210.284 121.902 15.714 0.463 27.871 13.38 27.362 28.781-0.508 15.381-13.57 27.469-29.186 26.973zM372.326 847.11c-58.196-1.324-123.134-38.441-174.069-98.7-51.775-61.295-77.172-133.077-67.866-191.974 2.321-14.824 16.091-25.072 31.009-23.454 0.421 0.055 0.841 0.109 1.249 0.168 15.461 2.386 26.015 16.626 23.617 31.843-6.752 42.673 14.522 99.305 55.456 147.737 40.050 47.396 90.677 77.18 132.151 78.673 15.539 0.087 27.939 13.206 27.519 28.618-0.443 15.398-13.45 27.525-29.066 27.089z" />
<glyph unicode="&#xe904;" glyph-name="courtyard" d="M1009.876 752.547c-14.124 19.35-54.735 15.83-54.735 15.83h-120.050l-6.448 191.623h-637.966v-189.871l-144.77-0.875c0 0-22.066-0.876-34.131-15.518-10.322-12.546-11.776-36.338-11.776-36.338v-291.815c0 0-3.456-10.354 15.891-26.372 19.3-15.957 33.549-12.296 33.549-12.296l158.423-3.52c0 0 15.405-84.299 72.912-146.524 88.276-95.514 164.134-90.791 164.134-90.791l-0.911-82.561-60.878 0.812c0 0-21.774 0.299-45.906-21.086-20.707-18.364-20.981-42.204-20.981-42.204l0.675-65.041h385.768v55.968c0 0 2.356 27.531-21.185 49.808-27.691 26.186-44.729 21.68-44.729 21.68h-61.208v84.377c0 0 88.34-5.006 163.607 79.7 85.78 96.531 83.705 154.424 83.705 154.424l140.223 1.439c0 0 19.175-0.234 40.313 15.096 16.088 11.668 20.597 34.132 20.597 34.132v268.96c0.001-0.001-1.642 33.881-14.123 50.963zM188.328 513.479h-63.563v126.565h63.563v-126.565zM894.53 513.479h-63.555v126.565h63.555v-126.565z" />
<glyph unicode="&#xe905;" glyph-name="super-star" d="M736.033 847.001v-59.031c0 0 64.261-1.691 91.262-39.431 25.2-35.239 26.083-85.465 26.083-85.465h64.269c0 0 5.589 78.896-38.186 129.598-56.149 65.055-143.428 54.329-143.428 54.329zM1023.814 663.075c0 0-9.569 143.774-71.709 208.493-98.727 102.83-216.072 87.333-216.072 87.333v-74.653c0 0 114.979 3.945 169.040-59.172 53.084-61.972 48.892-162.001 48.892-162.001h69.849zM638.241 456.429l119.213-61.991-63.337 114.47 54.028 154.166-141.569-48.871-109.896 105.173 13.038-144.621c0 0-270.126-157.229-305.492-182.202-126.172-89.058-172.192-174.75-194.538-283.726-25.253-97.194 10.138-172.692 10.138-172.692h113.625c0 0-67.911 150.891 22.817 280.698 68.924 98.603 184.409 173.731 184.409 173.731s-125.762-104.221-164.385-215.89c-43.251-125.020-1.366-238.674-1.366-238.674l126.57-0.287c0 0-91.349 155.397-39.959 260.517 55.144 112.815 207.663 211.242 207.663 211.242s-169.503-170.913-175.38-276.174c-6.514-116.688 46.395-195.163 46.395-195.163l128.93-0.135c0 0-80.151 67.584-77.628 167.333 4.113 163.269 112.149 221.613 112.149 221.613s-84.074-45.683-76.373-206.26c4.655-97.208 88.466-182.686 88.466-182.686l192.47-0.287c0 0-189.726 111.002-197.113 256.237-5.589 109.874 127.125 264.479 127.125 264.479z" />
<glyph unicode="&#xe906;" glyph-name="inquire" d="M133.587 523.528h679.674l0.597-75.911c3.65-5.345 25.022-0.022 29.881-0.022 30.551 0 43.282-5.418 70.913-15.873v359.243h-200.53v169.035h-714.122v-1024h693.613c-69.699 44.603-121.98 95.409-133.996 186.284-3.166 24.008-5.051 79.628-0.857 102.543l-424.577 0.014v114.87l466.974-0.978c18.937 32.991 77.267 73.55 111.506 88.801l-578.479-3.432-0.597 99.426zM134.936 603.145v95.007h479.607v-95.007zM739.896 952.453v-136.050h172.289l-172.289 136.050zM1023.989-0.88l-82.467 83.823c18.825 29.356 30.059 64.329 30.059 101.997 0 102.547-81.477 185.753-182.068 185.753-100.45 0-182.085-83.206-182.085-185.753 0-102.702 81.635-185.82 182.085-185.82 30.833 0 59.425 8.601 84.925 22.383l83.526-85.37 66.025 62.987zM680.904 184.94c0 61.172 48.683 110.873 108.674 110.873s108.533-49.701 108.533-110.873c0-61.18-48.541-110.873-108.533-110.873s-108.674 49.694-108.674 110.873z" />
<glyph unicode="&#xe907;" glyph-name="arrive" d="M0-54.901h176.538l1.063 850.855 258.229-0.771c0 0 52.451-6.684 82.968-41.684 31.775-36.442 35.525-84.864 35.525-84.864l0.94-455.090 187.317-1.046-0.002 454.392c0 0 1.642 89.644-99.813 195.042-87.25 90.663-199.166 97.826-199.166 97.826h-443.599v-1014.66zM268.564 686.763l181.936 0.737-1.155-587.694 267.14 0.771c0 0 50.489 19.565 85.478 52.924s38.985 83.897 38.985 83.897l1.038 722.362h182.014v-718.915c0 0 0.877-101.62-100.577-207.018-87.252-90.664-199.169-97.827-199.169-97.827h-455.69v750.763z" />
<glyph unicode="&#xe908;" glyph-name="praiseed" d="M980.385 357.413c25.996 15.864 43.615 44.579 43.615 77.726 0 50.117-39.795 90.752-88.877 90.752h-333.283c0 0 66.656 76.971 66.656 226.88 0 0 0 113.44-66.656 181.504 0 0-17.51 22.688-66.656 22.688 0 0-54.635 5.937-66.656-68.064v-113.44l-169.159-249.524h-186.343c-61.362 0-111.094-121.904-111.094-272.256 0-150.355 49.732-272.257 111.094-272.257h147.125c21.253-26.101 52.715-43.25 88.3-44.802v-0.575l520.017-0.045c49.082 0 88.877 40.637 88.877 90.753 0 22.378-8.246 42.629-21.396 58.449 25.994 15.819 43.613 44.49 43.613 77.679 0 22.378-8.245 42.586-21.393 58.45 26.015 15.818 43.611 44.533 43.611 77.679 0 22.377-8.245 42.584-21.395 58.403zM146.354 72.173c-18.411 0-33.328 15.245-33.328 34.032s14.917 34.032 33.328 34.032c18.411 0 33.328-15.244 33.328-34.032s-14.917-34.032-33.328-34.032z" />
<glyph unicode="&#xe909;" glyph-name="praiseing" d="M980.385 357.413c13.15-15.819 21.395-36.026 21.395-58.403 0-33.146-17.596-61.861-43.611-77.679 13.148-15.864 21.393-36.072 21.393-58.45 0-33.189-17.619-61.86-43.613-77.679 13.15-15.82 21.396-36.071 21.396-58.449 0-50.116-39.795-90.753-88.877-90.753l-520.017 0.045v0.575c-35.585 1.552-67.047 18.701-88.3 44.802h-147.125c-61.362 0-111.094 121.902-111.094 272.257 0 150.352 49.732 272.256 111.094 272.256h186.343l169.159 249.524v113.44c12.021 74.001 66.656 68.064 66.656 68.064 49.146 0 66.656-22.688 66.656-22.688 66.656-68.064 66.656-181.504 66.656-181.504 0-149.909-66.656-226.88-66.656-226.88h333.283c49.082 0 88.877-40.635 88.877-90.752 0-33.147-17.619-61.862-43.615-77.726zM113.026 480.559c-17.12 0-66.657-77.989-66.657-226.88 0-148.848 49.537-226.882 66.657-226.882h123.95c-1.247 4.521-2.647 8.906-3.406 13.605-13.128 65.184-31.668 172.287-31.668 258.652 0 91.726 48.961 156.512 66.657 181.504h-155.533zM935.123 480.514h-431.922l65.355 75.464c0.564 0.621 55.504 67.666 55.504 196.66 0 0.931-1.195 96.025-53.639 149.511l-2.604 2.393c-14.949 9.616-35.52 7.135-35.52 7.135-11.848 0-17.098-15.554-19.334-26.898v-123.499l-210.816-310.721c-18.118-25.436-55.808-78.345-55.808-151.504 0-84.24 19.268-192.494 31.072-251.209 5.945-36.558 36.626-64.297 72.993-65.893l518.063-0.575c24.498 0 44.438 20.382 44.438 45.375 0 13.25-5.902 23.133-10.828 29.068l-33.977 40.856 45.066 27.475c13.756 8.376 21.957 22.866 21.957 38.729 0 13.25-5.9 23.132-10.848 29.114l-33.959 40.899 45.111 27.431c13.715 8.331 21.916 22.776 21.916 38.685 0 13.249-5.902 23.086-10.828 29.070l-33.98 40.854 45.068 27.474c13.756 8.376 21.957 22.821 21.957 38.729 0.001 25.038-19.939 45.377-44.437 45.377zM146.354 72.173c-18.411 0-33.328 15.245-33.328 34.032s14.917 34.032 33.328 34.032c18.411 0 33.328-15.244 33.328-34.032s-14.917-34.032-33.328-34.032z" />
<glyph unicode="&#xe90a;" glyph-name="tv-live" d="M934.889 662.42h-359.713l211.395 228.843c8.625 9.058 11.599 19.441 10.452 30.062-1.136 11.535-7.037 19.574-16.058 27.083-10.261 7.583-21.732 10.812-33.69 9.767-13.693-0.975-24.080-5.991-32.093-15.019l-221.389-239.096-145.185 166.905c-8.025 9.028-18.382 14.042-32.091 15.019-11.942 1.062-22.646-2.171-32.892-9.766-9.034-7.464-15.722-15.548-16.855-27.053-1.15-10.621 1.857-21.034 10.435-30.077l134.828-156.668h-323.72c-53.966-1.15-89.109-38.455-89.109-83.52v-542.905c0-72.719 37.503-83.502 89.109-83.502h49.781v-16.493h165.74l-0.3 16.493h388.893l0.125-16.493h201.983l-0.314 16.493h40.668c51.654 0 89.111 34.957 89.111 83.502v542.905c0 48.531-37.457 83.52-89.111 83.52zM797.258 119.53c-3.574-25.64-14.622-41.743-51.133-41.743h-562.138c-40.542 0-51.118 10.119-51.118 41.743v375.85c0 31.598 10.575 41.746 51.118 41.746h562.138c40.51 0 51.133-10.148 51.133-41.746v-375.85zM918.268 65.287c-20.544 0-37.196 16.653-37.196 37.197s16.652 37.197 37.196 37.197c20.545 0 37.198-16.652 37.198-37.197s-16.653-37.197-37.198-37.197zM918.268 186.888c-29.655 0-53.695 24.040-53.695 53.696s24.040 53.697 53.695 53.697c29.657 0 53.697-24.040 53.697-53.697s-24.040-53.696-53.697-53.696z" />
<glyph unicode="&#xe90b;" glyph-name="finance" d="M1028.652 42.301c0-14.803-2.449-28.62-7.354-41.47s-11.881-24.142-20.929-33.877c-9.052-9.738-19.615-17.33-31.685-22.777-12.064-5.452-25.267-8.178-39.602-8.178l-821.428 0.002c-14.33 0-27.91 2.724-40.733 8.176-12.821 5.447-24.133 13.039-33.94 22.777-9.809 9.735-17.54 21.027-23.195 33.877-5.66 12.85-8.486 26.669-8.486 41.47v582.902c0 29.588 9.992 54.703 29.981 75.34s44.316 30.96 72.981 30.96h821.425c28.666 0 52.991-10.323 72.981-30.96s29.981-45.752 29.981-75.34v-158.872h-256.833c-28.665 0-52.991-10.122-72.98-30.368-19.989-20.248-29.982-45.17-29.982-74.763 0.756-20.248 4.905-38.162 12.448-53.735 6.032-13.242 16.028-25.312 29.981-36.211 13.956-10.901 34.135-16.356 60.533-16.356h256.838l-0.002-212.597zM874.776 785.236h-513.677c40.732 21.803 79.2 42.829 115.407 63.077 31.681 17.134 62.989 34.268 93.915 51.401 30.925 17.127 55.063 30.368 72.412 39.715 26.398 14.794 49.971 21.611 70.716 20.443 20.738-1.17 38.278-4.869 52.608-11.096 16.595-8.567 30.93-19.858 42.999-33.878l65.62-129.662zM720.9 361.179c0 14.24 4.903 26.235 14.707 35.984 9.809 9.743 21.878 14.614 36.208 14.614s26.396-4.871 36.207-14.614c9.804-9.748 14.706-21.744 14.706-35.984s-4.902-26.424-14.706-36.547c-9.809-10.119-21.877-15.181-36.207-15.181s-26.398 5.062-36.208 15.181c-9.8 10.123-14.707 22.306-14.707 36.547v0z" />
<glyph unicode="&#xe90c;" glyph-name="work-email" d="M151.704 472.376v140.868h718.689v-140.868l131.89 102.952-453.551 384.672h-72.684l-450.853-376.54zM294.291 272.781l-295.259 260.102 0.968-543.634zM729.522 272.781l294.291 260.102v-543.634zM25.195-64l328.385 295.288c0 0 88.816-89.401 158.817-89.401 69.985 0 156.119 89.401 156.119 89.401l331.083-295.288h-974.404zM235.153 556.361h554.488v-43.351h-554.488v43.351zM259.367 429.041h506.046v-40.635h-506.046v40.635zM385.889 320.688h258.399v-35.217h-258.399v35.217z" />
<glyph unicode="&#xe90d;" glyph-name="stoppage" d="M992.767 335.553l-55.086 28.591c-5.288 2.619-3.628 15.068-1.46 37.567l-1.178 115.361c0 0 43.883 14.048 69.813 30.223 11.968 7.464 22.718 12.843 17.912 31.264-3.373 12.888-37.335 110.441-37.335 110.441-8.608 20.866-32.692 30.963-53.628 22.459l-62.879-12.689c-8.729-2.979-19.426-4.665-31.406 3.353l-69.547 73.709c-17.175 14.428-15.462 19.526-6.733 40.206l12.075 55.142c8.742 20.68-1.099 44.871-21.874 53.575l-75.718 31.722c-20.843 8.73-45.1-1.173-53.842-21.859l-27.898-66.004c-4.364-1.146-155.25-0.973-159.145 2.152l-31.406 74.814c-5.704 8.99-28.033 15.568-42.611 8.944l-106.561-42.439c-10.883-5.978-32.53-20.106-19.063-41.319l24.673-77.067c-2.557-10.856-78.997-90.976-93.107-93.808l-82.706 16.348c-20.991 8.776-34.966-14.795-43.762-35.608l-33.654-72.037c-8.795-20.813-11.647-44.845 9.264-53.608l42.062-16.748c20.709-8.836 29.92-19.38 27.765-41.879l-0.844-102.186c2.008-22.392 0.777-26.251-20.106-34.621l-45.797-18.534c-20.991-8.624-10.803-27.424-2.249-48.19l35.341-84.598c8.501-20.906 11.781-39.366 37.859-38.527l66.453 22.612c20.804 8.557 110.992-96.587 102.224-117.333l-19.036-45.065c-8.742-20.673-2.705-35.827 11.312-41.412l113.281-48.85c20.71-8.664 41.741 0.813 50.496 21.485l21.901 47.65c8.782 20.746 138.489 21.025 147.016 0.194l29.266-48.845c15.139-27.631 28.38-25.817 42.689-20.379 14.311 5.424 111.554 42.358 111.554 42.358 19.947 11.997 26.681 20.932 18.822 53.321l-11.204 69.771c-8.595 20.692 71.206 97.513 91.97 88.81l66.185-20.080c25.797-4.473 40.936 11.923 49.706 32.668l31.847 75.388c8.926 20.762-0.953 44.886-21.651 53.557zM698.441 421.817l-84.941-89.317-0.5-163.637h-210.131v170.869l-83.562 61.979v165.284l69.546 131.775 37.646-0.299-0.632-211.89h167.137v212.189h42.61l62.826-127.303v-149.65z" />
<glyph unicode="&#xe90e;" glyph-name="bulletin" d="M921.6-64h-819.201c-56.319 0-102.399 54.212-102.399 120.471v783.059h102.399v-662.588h102.401v662.588c0 66.259 46.079 120.47 102.399 120.47h614.4c56.321 0 102.401-54.211 102.401-120.47v-783.059c0-66.259-46.080-120.471-102.4-120.471zM665.6 176.941v120.47h-307.2v-120.47h307.2zM870.399 779.294h-512v-120.47h512v120.47zM870.399 538.354h-512v-120.47h512v120.47z" />
<glyph unicode="&#xe90f;" glyph-name="rewards" d="M389.384 136.277l-194.662-200.262v196.41l-194.668 11.554 141.729 138.585c0 0 70.875-50.546 107.446-84.599 18.377-17.116 140.155-61.688 140.155-61.688zM878.504 282.563l145.496-146.286-182.989-7.718-3.896-192.544-201.131 200.262c0 0 87.96 22.738 117.718 42.418 55.314 36.557 124.802 103.868 124.802 103.868zM519.267 959.985c-214.411 0-388.342-172.211-388.342-384.592s173.896-384.563 388.342-384.563c214.42 0 388.31 172.183 388.31 384.563s-173.89 384.607-388.31 384.607v-0.015zM520.99 318.895c-147.404 0-266.958 118.396-266.958 264.357 0 146.018 119.562 264.384 266.958 264.384 147.405 0 266.966-118.395 266.966-264.384s-119.575-264.357-266.966-264.357zM519.267 772.44c-107.229 0-194.153-86.1-194.153-192.275s86.938-192.261 194.153-192.261c107.189 0 194.12 86.113 194.12 192.261s-86.946 192.275-194.12 192.275z" />
<glyph unicode="&#xe910;" glyph-name="traffic" d="M660.446 349.685c-4.765 64.225 198.443 62.548 198.443 62.548s-157.769 36.721-231.771-28.737c-93.682-82.841 47.623-135.24 79.36-169.050 31.767-33.811 34.93-92.987-104.772-96.369-139.716-3.368-238.137 6.765-238.137 6.765s-27.733-122.886-52.4-187.639c0 0 268.299-8.456 376.264 18.604 107.964 27.031 222.267 118.327 173.057 223.123-49.222 104.826-195.293 106.517-200.044 170.755zM266.726 828.082c-147.312 0-266.726-127.136-266.726-283.994s212.751-280.627 266.726-593.488c76.198 307.788 266.712 436.63 266.712 593.489 0 156.857-119.414 283.993-266.712 283.993zM266.726 393.643c-78.035 0-141.304 67.355-141.304 150.446s63.27 150.445 141.304 150.445c78.021 0 141.304-67.354 141.304-150.445s-63.283-150.446-141.304-150.446zM1024.018 791.742c0 92.9-70.742 168.211-157.988 168.211-87.232 0-157.948-75.311-157.948-168.211 0-92.884 125.988-166.21 157.948-351.509 45.148 182.298 157.988 258.624 157.988 351.509zM782.347 791.742c0 49.208 37.47 89.106 83.683 89.106 46.226 0 83.697-39.898 83.697-89.106s-37.472-89.105-83.697-89.105c-46.214 0-83.683 39.898-83.683 89.105z" />
<glyph unicode="&#xe911;" glyph-name="invite" d="M360.62 313.821h37.299v554.996h-397.842v-128.595l35.514-2.784 34.634-624.702-55.949 2.676 31.974-142.096 131.001 53.702 124.754 5.279v-85.794h127.881v147.466h-63.941l-5.325 219.852zM278.030 166.358h-63.046v53.621h63.046v-53.621zM278.030 345.992h-63.046v206.453h63.046v-206.453zM278.030 681.134h-82.59v56.305h82.59v-56.305zM965.386 855.409c-28.433 22.117-87.916 34.86-87.916 34.86l-87.916 10.72v58.987h-141.204v-69.708h-199.813v-587.172h575.463v447.752c0 0 0 58.981-58.614 104.561zM648.35 463.963h-63.941v69.713h63.941v-69.713zM648.35 681.134h-63.941v75.074h63.941v-75.074zM858.82 463.963h-66.607v88.482h66.607v-88.482zM792.213 694.542v61.666h37.3l50.624-61.666h-87.924zM411.236 134.182l117.231 2.684 5.323-36.198-63.94-33.508 43.927-131.373c0 0 193.191 67.022 262.452 67.022 69.266 0 69.272-56.305 69.272-56.305h143.865l-7.992 109.927c0 0-18.649 72.391-101.239 75.074-74.613 2.414-213.138-10.726-213.138-10.726l-2.659 45.579h359.662v99.2h-612.764v-131.376z" />
<glyph unicode="&#xe912;" glyph-name="classroom" d="M0-63.972h512v1023.972h-512v-1023.972zM315.996 833.378h127.998v-127.992h-127.998v127.992zM315.996 576.012h127.998v-127.992h-127.998v127.992zM315.996 321.405h127.998v-128.011h-127.998v128.011zM64.001 833.378h127.998v-127.992h-127.998v127.992zM64.001 576.012h127.998v-127.992h-127.998v127.992zM64.001 321.405h127.998v-128.011h-127.998v128.011zM575.999 635.728h447.999v-58.65h-447.999v58.65zM575.999-63.972h127.997v223.959h192.006v-223.961h127.998v570.619h-447.999v-570.613l-0.002-0.004z" />
<glyph unicode="&#xe913;" glyph-name="requisition" d="M999.018 932.578c-16.925 18.308-36.954 27.422-60.162 27.422h-853.418c-23.354 0-43.31-9.114-60.161-27.422-16.778-18.39-25.277-40.247-25.277-65.734v-558.534c0-25.487 8.425-47.426 25.203-65.655 16.925-18.468 36.807-27.422 60.161-27.422h85.364v-279.469l259.418 279.469h508.636c23.208 0 43.311 8.954 60.161 27.422 16.704 18.311 25.057 40.168 25.057 65.655v558.534c0.074 25.487-8.353 47.344-24.982 65.734zM106.981 805.385h808.333v-74.284h-808.333v74.284zM578.508 447.842h-471.527v74.363h471.527v-74.363zM916.052 586.649h-808.333v74.201h808.405v-74.201h-0.072z" />
<glyph unicode="&#xe914;" glyph-name="circle" d="M719.658 915.876c-0.617 0.407-1.146 0.987-1.854 1.273-61.2 26.848-128.73 42.042-199.815 42.766-0.18 0-0.392-0.031-0.602-0.031-0.105 0-0.211 0.031-0.302 0.031-11.24 0.083-22.375-0.362-33.418-1.070-7.744-0.437-15.414-1.19-23.052-1.966-1.206-0.128-2.426-0.181-3.677-0.317v-0.083c-89.602-9.785-161.229-31.23-230.882-81.378l-61.26 78.689c-2.999 4.324-75.846-321.258-73.194-324.234 2.441-2.741 300.264 24.045 296.498 27.542l-52.252 65.212c39.535 25.68 84.992 42.923 133.717 49.439l0.106-1.454c14.915 1.921 30.103 3.164 45.562 3.021 181.417-1.808 326.962-150.335 325.184-331.707-1.808-181.4-150.305-326.998-331.738-325.153-181.373 1.814-327.023 150.298-325.185 331.708 0.166 15.811 1.823 31.276 4.159 46.456l-175 66.072c-7.775-34.677-12.265-70.609-12.627-107.611-2.832-282.75 224.102-514.238 506.844-517.055 282.772-2.786 514.288 224.128 517.105 506.841 2.064 210.583-123.412 392.579-304.317 473.009zM250.525 490.105c0 0-7.744-99.707 48.967-156.422 46.888-46.863 122.975-49.731 148.091-49.312-38.255 48.506-96.321 116.21-134.832 147.262-6.042 4.852-11.631 8.912-16.543 11.934 0 0 6.177-4.137 16.543-11.934 29.591-22.259 89.376-72.882 143.436-142.169 0.678 20.475 0.12 102.298-49.223 151.684-56.727 56.694-156.439 48.957-156.439 48.957zM572.5 484.389c-63.972-63.993-65.072-169.802-64.198-197.273 82.491 112.744 192.839 193.943 222.143 212.564 3.3 2.125 5.56 3.511 6.494 4.083 0.196 0.083 0.376 0.211 0.542 0.286-0.166-0.075-0.346-0.203-0.542-0.286-2.050-1.236-4.249-2.584-6.494-4.083-54.194-35.759-157.733-148.807-214.384-219.646 28.475-0.836 133.114 0.753 196.59 64.232 73.979 73.946 63.868 204.009 63.868 204.009s-130.055 10.079-204.019-63.886zM312.751 431.634c-10.366 7.797-16.543 11.934-16.543 11.934 4.912-3.022 10.501-7.083 16.543-11.934zM736.939 503.763c-0.935-0.572-3.194-1.958-6.494-4.083 2.245 1.499 4.445 2.847 6.494 4.083zM508.618 280.388c0 0-0.181 2.44-0.316 6.728-6.945-9.47-13.71-19.156-20.204-29.069 11.737 107.487-8.016 208.458-8.016 208.458 7.172-93.952 3.556-160.881-1.838-206.877-7.186 10.29-14.584 20.242-22.057 29.838-0.121-3.051-0.241-4.762-0.241-4.762s-3.074-0.232-8.362-0.331c12.521-15.857 22.946-29.688 29.817-39.464-5.244-41.493-11.737-56.408-11.737-56.408l8.362-10.409c5.424 18.942 9.342 38.696 12.114 58.629l1.386 4.933c-0.060 0.121-0.12 0.234-0.18 0.315 6.855 10.073 16.754 23.15 28.717 38.065-4.732 0.151-7.445 0.354-7.445 0.354zM736.939 503.763c0.361 0.211 0.542 0.286 0.542 0.286-0.166-0.075-0.345-0.203-0.542-0.286z" />
<glyph unicode="&#xe915;" glyph-name="personal" d="M930.912-64c0 0-744.736 0-837.824 0s-93.088 93.088-93.088 93.088v512l232.736 418.912h558.56l232.736-418.912c0 0 0-418.912 0-512s-93.088-93.088-93.088-93.088h-0.032zM325.824 215.264c0 0 0-46.56 46.56-46.56s279.265 0 279.265 0 46.56 0 46.56 46.56c0 46.561 0 46.561 0 46.561s0 46.56-46.56 46.56c-139.648 0-279.265 0-279.265 0s-46.56 0-46.56-46.56c0-46.561 0-46.561 0-46.561zM744.736 866.912h-465.44l-162.912-325.824h791.265l-162.913 325.824zM721.44 680.736l23.264-46.56h-465.44l23.264 46.56h418.912zM349.088 773.824h325.824l23.264-46.56h-372.352l23.264 46.56zM605.088 215.264h-186.176v46.561h186.176v-46.561z" />
<glyph unicode="&#xe916;" glyph-name="schedule" d="M808.42 884.35h105.994c60.522 0 109.586-45.741 109.586-102.391v-743.568c0-56.549-49.045-102.391-109.586-102.391h-804.828c-60.523 0-109.586 45.74-109.586 102.391v743.568c0 56.549 49.044 102.391 109.586 102.391h105.992v-88.225c-32.218-17.26-53.894-49.522-53.894-86.471 0-55.133 48.258-99.827 107.789-99.827s107.789 44.694 107.789 99.827c0 36.949-21.676 69.211-53.894 86.471v88.225h377.262v-88.225c-32.218-17.26-53.895-49.522-53.895-86.471 0-55.133 48.26-99.827 107.79-99.827s107.789 44.694 107.789 99.827c0 36.949-21.677 69.211-53.896 86.471v88.225h0.002zM700.631 908.925c0 27.777 24.19 50.294 53.896 50.294 29.765 0 53.894-22.509 53.894-50.294v-198.889c0-27.777-24.19-50.295-53.894-50.295-29.766 0-53.896 22.509-53.896 50.295v198.889zM215.579 908.925c0 27.777 24.19 50.294 53.895 50.294 29.765 0 53.896-22.509 53.896-50.294v-198.889c0-27.777-24.191-50.295-53.896-50.295-29.766 0-53.895 22.509-53.895 50.295v198.889zM199.328 130.973c34.445 0 62.369 27.935 62.369 62.393s-27.923 62.392-62.369 62.392-62.368-27.935-62.368-62.392c0-34.459 27.923-62.393 62.368-62.393v0zM199.328 361.197c34.445 0 62.369 27.934 62.369 62.393s-27.923 62.391-62.369 62.391-62.368-27.933-62.368-62.391c0-34.459 27.923-62.393 62.368-62.393zM881.903 153.435c19.731 0 35.728 17.222 35.728 38.37 0 21.191-18.283 38.371-35.728 38.371h-476.382c-19.732 0-35.729-17.222-35.729-38.371 0-21.191 18.283-38.37 35.729-38.37h476.382zM881.903 383.659c19.731 0 35.728 17.222 35.728 38.371 0 21.191-18.283 38.37-35.728 38.37h-476.382c-19.732 0-35.729-17.222-35.729-38.37 0-21.192 18.283-38.371 35.729-38.371h476.382z" />
<glyph unicode="&#xe917;" glyph-name="corporation" d="M511.993 960c71.046 0 137.598-13.304 199.703-39.943 62.131-26.607 116.401-63.148 162.813-109.548 46.437-46.424 82.952-100.701 109.573-162.832 26.633-62.106 39.918-128.675 39.918-199.671s-13.285-137.572-39.917-199.684c-26.621-62.111-63.137-116.395-109.573-162.807-46.412-46.418-100.683-82.94-162.813-109.585-62.106-26.626-128.658-39.93-199.704-39.93-70.995 0-137.546 13.304-199.652 39.931-62.118 26.645-116.401 63.167-162.801 109.585-46.449 46.412-82.953 100.695-109.56 162.806-26.658 62.112-39.98 128.675-39.98 199.659 0 71.014 13.322 137.59 39.98 199.695 26.583 62.112 63.111 116.408 109.561 162.82 46.399 46.405 100.67 82.928 162.801 109.56 62.105 26.64 128.656 39.944 199.651 39.944v0zM890.539 576.364l-278.161-24.937-100.385 285.131-100.285-285.131-269.556 16.526 242.775-157.543-113.633-273.77 242.712 188.54 242.661-174.008-100.559 266.985 234.431 158.207z" />
<glyph unicode="&#xe918;" glyph-name="live-guide" d="M292.536 637.423c2.896 0 5.771-0.012 8.645-0.044 2.686 8.891 5.538 17.716 8.534 26.463 28.653 83.597 69.724 158.736 122.059 223.295 21.627 26.663 44.709 50.985 69.156 72.863-135.419-2.886-257.877-58.399-347.798-146.869 39.062-50.074 62.865-111.647 68.681-177.451 23.448 1.154 47.030 1.743 70.723 1.743zM123.291 781.195c-42.168-49.219-75.194-106.52-96.368-169.292 49.738 9.813 100.475 16.817 151.987 20.979-5.204 56.102-25.268 107.264-55.619 148.313zM492.996 375.742c-34.157 60.774-46.32 121.594-36.199 180.781 1.576 9.202 3.685 18.271 6.292 27.174-42.248 5.394-85.471 8.813-129.471 10.134-16.569-63.816-25.502-131.818-25.502-202.372 0-174.697 54.842-333.777 144.253-452.008 19.586-2.274 39.517-3.452 59.704-3.452 140.513 0 267.776 56.624 360.284 148.29-86.925 35.754-165.106 79.279-230.514 129.030-66.728 50.752-116.821 105.411-148.847 162.423zM179.942 589.802c-57.15-4.74-112.748-13.065-166.325-24.599-8.79-37.63-13.461-76.848-13.461-117.131 0-36.887 3.917-72.841 11.318-107.508 94.117 34.602 163.342 132.484 168.468 249.238zM877.683 806.493c-41.771-7.193-81.664-16.784-119.097-28.839-113.791-36.575-194.224-91.933-233.962-159.58 50.604-8.625 100.253-20.113 148.682-34.444 116.841-34.566 221.854-84.141 312.153-147.302 12.751-8.925 25.091-18.060 37.065-27.385 0.988 12.92 1.476 25.963 1.476 39.129 0 139.543-55.809 266.043-146.317 358.421zM479.458 624.979c16.335 32.402 40.261 62.495 71.6 89.98 49.159 43.092 114.557 77.958 194.379 103.622 29.586 9.514 60.591 17.561 92.784 24.188-75.605 62.584-169.511 103.844-272.493 114.578-98.621-73.962-176.435-186.608-219.736-320.923 45.054-1.677 89.587-5.507 133.466-11.445zM265.125 391.46c0 69.5 8.146 137.501 24.236 202.971-22.294-0.033-44.4-0.633-66.306-1.754-2.464-80.744-31.683-156.371-82.941-214.004-33.448-37.564-73.764-64.705-117.819-80.013 52.489-172.311 193.314-306.092 369.749-348.484-33.757 51.239-61.368 107.796-82.33 168.902-29.586 86.318-44.589 177.962-44.589 272.382zM499.155 549.263c-16.935-98.937 42.968-206.090 168.69-301.73 66.192-50.362 146.261-94.11 235.639-129.52 56.983 67.558 96.824 150.043 112.759 240.778-129.096 107.529-307.063 185.942-510.052 218.7-3.041-9.224-5.405-18.637-7.036-28.228z" />
<glyph unicode="&#xe919;" glyph-name="video-live" d="M207.272 193.506h135.099l-154.604-257.51h-48.76zM517.904 193.506h-135.098l154.61-257.51h48.758zM775.324 543.351c0 0 81.022 34.111 120.071 44.032 39.058 9.92 128.604 19.137 128.604 19.137v-359.564c0 0-103.716 18.713-141.4 29.761-37.687 11.047-107.275 43.13-107.275 43.13v223.504zM334.046 814.229c0-80.492-65.49-145.757-146.279-145.757-80.795 0-146.286 65.266-146.286 145.757 0 80.505 65.491 145.771 146.286 145.771 80.789 0 146.279-65.266 146.279-145.771zM677.806 814.229c0-80.492-65.49-145.757-146.28-145.757-80.788 0-146.284 65.266-146.284 145.757-0.001 80.505 65.495 145.771 146.283 145.771 80.79 0 146.281-65.266 146.281-145.771zM711.425 289.476c0-48.304-4.238-62.759-53.73-62.759l-575.985 0.119c-71.313-0.571-80.457-0.81-80.457 39.854l-0.684 319.778c0 48.303-8.579 49.297 40.913 49.297h629.117c49.483 0 40.12-39.152 40.12-87.454l0.706-258.835z" />
<glyph unicode="&#xe91a;" glyph-name="apply-for" d="M988.080 960h-634.963c-19.842 0-35.952-16.311-35.952-36.443v-295.417h158.428v217.75h337.482l-148.725-65.551c-11.237-6.483-18.206-18.576-18.206-31.7v-501.219h-170.552v137.858h-158.428v-237.228c0-20.14 16.111-36.449 35.953-36.449h293.025v-138.477c0-12.964 6.788-24.959 17.847-31.483 5.59-3.301 11.818-4.944 18.073-4.944 6.142 0 12.215 1.562 17.723 4.737l298.778 171.929c14.695 4.6 25.437 18.291 25.437 34.681v775.513c0 20.134-16.071 36.443-35.92 36.443v0zM434.592 455.573c27.765 0 50.265 22.838 50.265 51.030 0 28.154-22.5 51.004-50.265 51.004h-192.193v95.109c0 8.248-4.577 15.757-11.777 19.498-7.229 3.715-15.872 3.044-22.423-1.802l-198.319-146.128c-5.572-4.13-8.904-10.692-8.904-17.681 0-7.012 3.332-13.614 8.904-17.727l198.281-146.155c3.752-2.766 8.187-4.176 12.655-4.176 3.354 0 6.708 0.772 9.806 2.369 7.208 3.738 11.777 11.27 11.777 19.507v95.151l192.193 0.001z" />
<glyph unicode="&#xe91b;" glyph-name="inform" d="M809.302 534.062c-145.622 283.658-221.388 391.434-459.301 386.917-84.745-1.554-64.429 55.605-129.095 33.926-64.508-21.677-9.142-53.4-75.167-102.501-185.341-137.764-168.295-265.159-82.311-568.833 36.205-127.937-87.302-134.188-38.441-258.113 35.687-90.399 298.829-128.263 576.421-35.083 277.634 93.252 452.595 278.276 416.87 368.709-48.86 124-147.618 55.568-208.974 174.978h-0.002zM571.31 66.793c-247.934-83.244-451.678-34.326-460.299-12.539-14.81 37.577 80.035 162.802 363.497 258.006s441.657 59.904 458.183 17.993c9.779-24.786-113.37-180.145-361.381-263.425v-0.035zM491.631 268.758c-129.575-43.535-219.63-93.287-278.031-138.090 41.074-33.743 117.958-41.981 194.562-16.259 97.52 32.66 157.518 107.885 133.807 167.861-0.319 0.759-0.719 1.336-1.040 2.097-16.045-4.734-32.453-9.9-49.298-15.609v0z" />
<glyph unicode="&#xe91c;" glyph-name="inform-letter" d="M653.151 190.24h-435.154c-20.098 0-37.135 6.167-51.054 18.477-13.917 12.335-20.892 27.378-20.892 45.179 0 17.775 6.973 32.994 20.892 45.654s30.955 19.004 51.054 19.004h435.156c20.126 0 37.332-6.343 51.648-19.004s21.456-27.879 21.456-45.654c0-13.012-4.252-24.996-12.755-35.927l158.998 159.531v325.923h-169.429c-21.659 0-40.254 4.262-55.704 12.812-15.476 8.574-28.063 19.18-37.729 31.84-9.666 12.636-16.81 26.5-21.458 41.567-4.648 15.043-6.974 29.059-6.974 42.070v128.288h-536.693c-11.14 0-22.28-3.761-30.77-11.282-8.504-7.496-12.743-17.348-12.743-27.202v-887.771c0-9.853 4.239-19.706 12.743-27.228 8.49-7.521 19.63-11.257 30.77-11.257h203.079l233.908-1.76 214.597 209.075c-11.593-8.223-25.909-12.335-42.946-12.335zM577.812 575.133c17.803 0 33.020-6.343 45.682-19.004 12.661-12.636 18.979-27.879 18.979-45.655 0-17.8-6.318-32.844-18.979-45.153-12.662-12.335-27.879-18.479-45.682-18.479h-384.883c-17.776 0-32.845 6.143-45.156 18.479-12.31 12.309-18.478 27.353-18.478 45.153 0 17.775 6.167 33.019 18.478 45.655 12.311 12.661 27.378 19.004 45.156 19.004h384.883zM769.382 174.702c-12.335-12.333-24.646-24.82-36.956-37.455-12.335-12.661-23.616-24.118-33.873-34.397l-39.011-39.010c-6.845-6.82-12.312-14.692-16.424-23.593-1.353-2.732-3.234-7.873-5.641-15.395-2.383-7.521-4.964-15.569-7.698-24.118-2.731-8.55-5.139-16.923-7.17-25.146-2.056-8.224-3.435-14.366-4.112-18.479-1.378-8.198-0.676-14.015 2.057-17.45 2.732-3.408 8.198-4.437 16.423-3.084 4.111 0.702 10.254 2.057 18.479 4.112 8.198 2.057 16.747 4.464 25.65 7.196 8.898 2.732 17.624 5.643 26.174 8.724 8.549 3.084 14.867 5.643 18.98 7.698 4.11 2.055 8.223 4.612 12.308 7.695 4.112 3.084 7.874 5.967 11.309 8.724 0.678 0.677 4.263 4.438 10.782 11.282 6.493 6.845 14.517 15.043 24.117 24.645l170.368 170.359-86.225 86.22c-36.931-36.276-70.128-69.119-99.537-98.528zM1023.916 268.094c-0.676 8.197-2.057 15.043-4.11 20.533-4.112 9.578-10.104 18.629-17.954 27.178-7.871 8.574-15.243 14.541-22.061 17.977-6.169 3.409-14.043 5.641-23.619 6.668s-18.479-2.231-26.677-9.752c-3.435-2.733-7.695-6.493-12.837-11.282-5.14-4.788-9.753-8.899-13.865-12.334l87.252-86.195c2.057 1.354 4.439 3.41 7.171 6.143 2.057 2.056 4.464 4.638 7.195 7.696 2.734 3.084 5.817 6.343 9.228 9.752 7.545 7.545 10.955 15.392 10.277 23.616zM872.473 769.109v152.407c0 9.853-4.225 19.706-12.729 27.203-8.506 7.52-19.644 11.281-30.785 11.281h-174.647v-113.923c0-19.706 8.505-39.413 25.486-54.43 17.008-15.042 39.289-22.539 61.567-22.539l131.108 0.001z" />
<glyph unicode="&#xe91d;" glyph-name="vote" d="M1005.126 490.345c29.326 36.707 23.717 91.449-12.415 121.77l-391.433 327.942c-36.187 30.428-89.4 25.246-118.858-11.677l-463.606-580.62c-29.326-36.734-23.689-91.438 12.417-121.677l253.154-228.491c0.105-0.052 0.21-0.12 0.289-0.2h-148.42c0 0-21.43 0.2-34.109-14.981-7.385-8.846-12.667-46.91-12.667-46.91h851.79c0 0-3.18 35.939-11.692 47.92-12.115 17-40.942 13.972-40.942 13.972h-259.437c0.053 0.080 0.145 0.148 0.197 0.2l375.732 492.752zM66.852 239.052c-15.452-1.573-29.274 9.983-30.812 25.826-1.537 15.813 9.736 29.963 25.188 31.557l532.034 54.576-53.293 545.011c-1.55 15.835 9.751 29.962 25.201 31.564 15.428 1.575 29.156-9.981 30.744-25.857l35.294-360.942 228.859 23.495c15.452 1.582 29.248-9.994 30.8-25.817 1.55-15.816-9.749-29.962-25.188-31.544l-228.858-23.495 15.187-155.354c0.723-7.921-1.694-15.413-6.214-21.077-4.573-5.71-11.248-9.634-18.974-10.488l-155.7-15.963 23.125-236.475c1.551-15.843-9.75-29.962-25.201-31.563-15.438-1.574-29.249 9.973-30.785 25.803l-23.125 236.486-348.282-35.743z" />
<glyph unicode="&#xe91e;" glyph-name="library" d="M529.201 161.466c0 0 29.982-9.589 47.277-10.956 19.694-1.567 40.968 10.956 40.968 10.956l406.554 484.605v132.473l-491.641 181.456h-148.126l-384.483-482.253v-363.252l488.483-178.495c0 0 111.072 0 151.27 0l384.497 491.653v40.707l-403.402-463.466c0 0-25.213-7.83-45.697-7.83-20.479 0-43.331 3.921-43.331 3.921l-470.991 176.142v18.786l471.781-147.187c0 0 39.282-13.991 61.344-13.991 22.057 0 39.498 13.991 39.498 13.991l390.798 460.343v72.031l-393.159-452.905c0 0-16.544-25.832-51.213-26.224-17.325-0.19-47.269 12.523-47.269 12.523l-491.641 169.097 19.86 28.185 468.623-150.31zM297.566 649.588l76.819 100.671c30.337 36.863 49.244 50.829 99.671 29.678l226.511-88.071c29.324-10.93 35.85-26.996 21.338-50.829l-86.337-124.137c-23.636-26.16-65.221-30.905-94.548-19.975l-229.272 95.13c-29.331 10.929-36.238 25.832-14.182 57.533z" />
<glyph unicode="&#xe91f;" glyph-name="survery" d="M822.76 329.771c-110.977 0-201.225-88.331-201.225-196.886s90.248-196.885 201.225-196.885c110.978 0 201.266 88.33 201.266 196.885s-90.289 196.886-201.266 196.886zM952.065 183.364l-140.080-138.713c-5.156-5.098-12.2-7.971-19.53-7.971-7.315 0-14.361 2.873-19.514 7.983l-79.462 78.702c-10.661 10.542-10.531 27.546 0.229 37.948 10.787 10.391 28.154 10.334 38.788-0.22l59.958-59.374 120.551 119.412c10.663 10.555 28.046 10.609 38.847 0.221 10.76-10.415 10.889-27.435 0.213-37.988zM914.729 401.785v351.484c0 37.162-31.519 67.271-70.365 67.271h-160.273l1.736-97.773c0-18.573-9.248-39.571-43.929-40.711-15.761-0.498-228.888-2.162-292.375 1.14-18.725 0.981-31.221 20.942-32.944 31.097l2.881 115.883h-245c-75.576-0.001-74.46-39.745-74.46-76.907v-739.964c0-37.174 31.518-67.303 70.365-67.303h539.167c-39.849 30.556-117.88 183.193-45.297 311.409 51.044 90.208 152.787 192.476 350.494 144.374zM384.176 718.422c27.733-0.132 208.793-1.271 231.458-0.173 22.679 1.099 28.087 13.165 27.945 23.899-0.169 13.552-0.015 35.041 0 84.801 0.013 26.566-42.138 20.363-42.138 20.363s2.967 112.969-98.607 113.065c-118.659 0.118-103.040-111.946-103.040-111.946s-43.635 8.668-43.337-24.583c0.083-10.645 0-80.539 0-80.539s0-24.748 27.719-24.887zM502.834 894.799c21.265 0 38.508-16.868 38.508-37.7 0-20.805-17.243-37.68-38.508-37.68-21.266 0-38.522 16.875-38.522 37.68 0.001 20.833 17.257 37.7 38.522 37.7z" />
<glyph unicode="&#xe920;" glyph-name="bus" d="M964.87 647.71v240.352c0 39.975-35.158 72.374-78.518 72.374h-741.090c-43.359 0-78.517-32.399-78.517-72.374v-228.021h-66.745v-197.188h66.746v-351.269c0-35.622 27.941-65.159 64.702-71.198v-104.386h150.974v103.209h471.395v-103.209h150.973v105.296c34.449 7.664 60.080 36.172 60.080 70.288v351.269h63.16v184.857h-63.16zM560.931 875.702h142.28c32.027 0 57.986-19.308 57.986-43.135 0-23.812-25.959-43.121-57.986-43.121h-142.28v86.256zM329.62 875.702h142.28v-86.256h-142.28c-32.027 0-57.986 19.309-57.986 43.121 0 23.827 25.959 43.135 57.986 43.135zM158.078 727.822h709.741v-281.877h-709.741v281.877zM259.311 167.063c-39.989 0-72.404 32.431-72.404 72.404 0 39.989 32.415 72.404 72.404 72.404s72.404-32.415 72.404-72.404c0-39.973-32.415-72.404-72.404-72.404zM661.060 148.59h-294.641v61.609h294.641v-61.609zM661.060 262.579h-296.773v49.293h296.773v-49.293zM710.681 239.468c0 39.989 32.423 72.404 72.404 72.404 39.989 0 72.403-32.415 72.403-72.404 0-39.974-32.414-72.404-72.403-72.404-39.981-0.001-72.404 32.43-72.404 72.404z" />
<glyph unicode="&#xe921;" glyph-name="calendar" d="M0-64v943.495c0 44.439 32.771 80.505 73.151 80.505h66.283c0 0-11.003-117.679 72.729-116.125 81.707 1.519 69.153 116.125 69.153 116.125h507.435c0 0-15.813-121.852 79.749-120.5 82.988 1.169 65.474 120.5 65.474 120.5h16.892c40.363 0 73.134-36.066 73.134-80.505v-943.495h-1024zM917.185 647.786l-805.678 4.407v-546.034l805.626 4.29 0.052 537.337zM376.859 418.924c8.927 14.081 13.399 28.972 13.399 44.531 0 34.672-18.815 52.026-56.513 52.026-32.753 0-64.056-12.871-93.957-38.604v73.051c33.090 21.227 70.434 31.802 112.013 31.802 38.914 0 69.304-9.682 91.173-29.014 21.886-19.331 32.788-45.523 32.788-78.452 0-43.947-26.611-89.42-79.884-136.38l-78.299-68.845v-1.568h154.419v-68.828h-250.503v64.604l109.061 103.31c21.937 20.782 37.394 38.244 46.303 52.367v0zM687.858 272.229c11.828 8.788 17.769 21.042 17.769 36.784 0 16.227-7.308 28.722-21.938 37.511s-34.727 13.196-60.36 13.196h-33.917v61.375h31.269c49.088 0 73.642 15.717 73.642 47.159 0 29.606-18.85 44.372-56.548 44.372-25.228 0-49.779-7.888-73.641-23.588v65.431c26.476 12.837 57.307 19.248 92.522 19.248 38.56 0 68.596-8.338 90.078-25.091 21.498-16.752 32.212-38.47 32.212-65.181 0-47.501-24.99-77.233-74.939-89.21v-1.27c26.661-3.205 47.671-12.544 63.111-28.003 15.439-15.442 23.152-34.447 23.152-56.893 0-33.979-12.877-60.857-38.643-80.63-25.768-19.782-61.357-29.682-106.766-29.682-38.896 0-70.536 6.093-94.903 18.263v69.696c25.211-17.729 54.69-26.594 88.355-26.594 21.179-0.091 37.681 4.316 49.545 13.107v0z" />
<glyph unicode="&#xe922;" glyph-name="school-plan" d="M605.479 334.101c28.741 84.749 174.839 335.93 174.839 432.054 0 104.625-84.861 189.492-189.558 189.492-104.688 0-189.538-84.867-189.538-189.492 0-104.662 145.455-338.263 181.887-432.054h22.37zM507.454 766.154c0 45.981 37.313 83.291 83.306 83.291 46.013 0 83.304-37.31 83.304-83.291 0-45.987-37.291-83.286-83.304-83.286-45.993 0.001-83.306 37.299-83.306 83.286zM461.751 80.394l-184.473-102.994-246.74 117.349-2.398 222.753 433.611-237.108zM353.149 784.527c-0.225 24.106 5.267 76.566 23.849 107.864l-101.302-50.647-275.696 118.134v-905.628l275.696-118.129 236.296 118.129 275.697-118.128 236.311 118.128v905.628l-202.656-101.289c9.977-24.765 2.853-71.744 4.334-99.648l-193.475-439.118h-77.727c0.001 0-200.93 424.51-201.327 464.704z" />
<glyph unicode="&#xe923;" glyph-name="statistics" d="M127.051 102.601c183.223-206.193 497.268-223.334 701.46-38.374l-663.456 746.31c-204.207-184.953-221.185-501.913-38.004-707.936zM565.307 449.97l306.381-344.533c188.514 170.806 204.189 463.499 35.037 653.79l-341.418-309.257zM873.347 192.69l-224.816 252.764 250.48 226.792c96.602-147.516 86.101-343.355-25.664-479.556zM209.829 841.66l306.304-344.575 341.334 309.162c-169.103 190.334-459.11 206.102-647.638 35.413z" />
<glyph unicode="&#xe924;" glyph-name="school-map" d="M776.031 234.513l-74.595-90.116c0 0 176.338-37.188 169.077-55.973-15.901-41.157-259.601-54.444-382.89-54.444-123.305 0-316.767 43.747-312.345 67.288 5.026 26.725 226.56 46.944 226.56 46.944l-68.371 92.645c0 0-315.787-15.226-333.171-166.358-9.867-85.594 227.64-138.501 512.171-138.501 284.561 0 512.202 52.317 512.202 138.501 0.001 135.221-248.638 160.014-248.638 160.014zM251.125 468.497c0 0 241.769-398.345 253.667-398.345 11.883 0 253.651 398.345 253.651 398.345h-0.589c31.097 50.017 49.229 109.555 49.229 173.711 0.001 175.446-135.373 317.792-302.291 317.792-166.945 0-302.291-142.346-302.291-317.792 0-64.156 18.018-123.694 49.114-173.711h-0.49zM514.729 810.566c67.753 0 122.686-56.068 122.686-125.253 0-69.177-54.933-125.245-122.686-125.245-67.766 0-122.685 56.068-122.685 125.252 0.001 69.178 54.92 125.246 122.685 125.246z" />
<glyph unicode="&#xe925;" glyph-name="school-scenery" d="M921.624 960h-819.186c-56.313 0-102.438-46.125-102.438-102.437v-819.188c0-56.377 46.125-102.375 102.438-102.375h819.188c56.376 0 102.374 45.998 102.374 102.375v819.188c-0.001 56.312-45.999 102.437-102.376 102.437zM332.937 703.876c42.436 0 76.812-34.375 76.812-76.813s-34.376-76.812-76.812-76.812c-42.437 0-76.813 34.375-76.813 76.812s34.377 76.813 76.813 76.813zM151.374 189.187l257.75 260.187 65.030-110.138 242.47 312.89 153.375-462.938h-718.625z" />
<glyph unicode="&#xe926;" glyph-name="campus-activity" d="M518.002 480.376c45.606 45.614 241.401 260.027 254.421 316.043-1.212 196.992-197.902 208.36-254.814 75.367-47.993 123.323-273.069 121.537-265.987-74.817 21.761-75.069 199.136-258.883 266.38-316.593zM249.025 99.036c-7.093-196.359 218.004-198.141 265.987-74.849 56.911-132.966 253.603-121.598 254.803 75.397-13.020 56.006-208.806 270.429-254.409 316.045-67.223-57.707-244.609-241.524-266.381-316.593zM161.822 708.475c-194.904 7.125-196.67-219.645-74.262-267.998-132.012-57.335-120.728-255.487 74.807-256.697 55.59 13.129 268.432 210.39 313.71 256.324-57.293 67.725-239.743 246.427-314.255 268.371zM936.464 446.183c122.376 48.365 120.618 275.123-74.282 267.988-74.503-21.945-256.953-200.636-314.256-268.383 45.287-45.945 258.12-243.206 313.72-256.31 195.523 1.207 206.818 199.371 74.818 256.705z" />
<glyph unicode="&#xe927;" glyph-name="school-network" d="M128 192c-70.688 0-128-57.312-128-128s57.312-128 128-128c70.688 0 128 57.312 128 128s-57.312 128-128 128zM0 592v-176c265.104 0 480-214.912 480-480h176c0 362.32-293.696 656-656 656zM0 960v-176c468.336 0 848-379.664 848-848h176c0 565.536-458.464 1024-1024 1024z" />
<glyph unicode="&#xe928;" glyph-name="check-in-school" d="M977.889 623.929c-41.28 1.563-508.969 0-508.969 0s-25.089 146.454-124.025 146.97c-59.747-1.047-255.36 0-286.71 0-31.357 0-53.305-16.266-56.438-44.094-3.135-27.813 0-743.299 0-743.299s-1.563-49.346 43.894-47.767c9.984 0.332 58.939 0.532 129.629 0.621 0.249 63.213 38.019 114.332 84.631 114.332 46.576 0 84.346-51.103 84.625-114.255 108.836-0.047 231.479-0.152 339.781-0.289 0.997 62.317 38.434 112.449 84.556 112.449 46.19 0 83.665-50.254 84.58-112.677 69.896-0.121 117.287-0.182 124.446-0.182 32.4 0 45.995 17.313 45.995 51.969 0 34.642 0 568.502 0 587.925s-4.714 46.72-45.995 48.297zM344.555 260.664h-192.314c0 0 0 68.249 0 91.341 0 23.11 61.847 35.811 61.847 35.811l4.041 11.761c-15.151 10.271-25.127 27.69-25.127 47.446 0 31.606 25.504 57.219 56.96 57.219 31.463 0 56.968-25.613 56.968-57.219 0-20.529-10.8-38.479-26.955-48.569l2.961-9.135c0 0 61.959-18.422 61.959-38.344 0-18.921-0.34-90.311-0.34-90.311zM873.38 260.664h-404.46v54.608h404.46v-54.608zM873.38 382.46h-404.46v69.857h404.46v-69.857zM1023.884 764.602c0 19.422-4.714 46.719-45.995 48.313-41.28 1.563-508.969 0-508.969 0s-25.089 146.453-124.025 146.969c-59.747-1.062-255.36 0-286.71 0-31.357 0-53.305-16.265-56.438-44.094-1.254-11.107-3.203-132.874 0-125.985 9.674 20.773 12.543 29.407 43.894 29.407 31.358 0 239.509-5.25 299.255-4.203 98.936-0.531 154.349-127.988 154.349-127.988s437.335-0.653 478.646-0.091c14.902 0.182 41.803-28.557 45.995-25.401 4.175 3.141-0.002 97.338-0.002 103.073z" />
<glyph unicode="&#xe929;" glyph-name="information" d="M1024 523.582l-18.269-1.377v68.922c0 24.823-16.17 46.829-48.68 59.184-32.145 68.698-165.633 307.761-466.823 308.487-266.348 0.663-385.729-233.919-416.107-305.945-37.359-11.729-55.852-35.112-55.852-61.726v-68.922l-18.269 1.377v-230.651l19.665 1.377-1.396-89.252c0-27.902 53.367-74.143 113.778-71.389 60.398 2.754 101.125 49.433 101.125 86.497 0 37.054 0 319.878 0 358.333 0 23.208-13.831 48.381-38.383 64.717 26.69 54.139 106.914 178.503 284.202 188.592 232.813 13.293 327.419-122.048 358.252-183.76-29.546-15.873-46.414-43.938-46.414-69.549 0-38.454 0-321.279 0-358.333 0-13.682 5.565-28.678 15.606-42.296-19.377-22.733-45.87-52.263-60.565-62.039-16.68-11.116-59.865-24.496-86.767-32.195-15.625 42.71-57.363 73.267-106.434 73.267-62.416 0-113.010-49.445-113.010-110.444s50.594-110.456 113.010-110.456c49.34 0 91.262 30.906 106.684 73.991 31.543 10.629 71.84 26.789 103.377 48.182 33.313 22.582 66.309 57.431 89.388 84.369 11.955-4.994 25.319-8.212 39.836-8.875 60.404-2.754 113.778 43.486 113.778 71.389l-1.402 89.252 19.671-1.377v230.65z" />
<glyph unicode="&#xe92a;" glyph-name="news" d="M1005.124 918.527c-8.546 24.216-29.208 41.311-53.391 41.311-24.185 0-44.853-17.094-53.392-41.311h-14.821c-8.538 24.216-29.206 41.311-53.391 41.311-24.177 0-44.853-17.094-53.383-41.311h-21.23c-8.53 24.216-29.207 41.311-53.384 41.311-24.185 0-44.852-17.094-53.39-41.311h-14.821c-8.54 24.216-29.207 41.311-53.393 41.311-24.176 0-44.844-17.094-53.383-41.311h-21.222c-8.54 24.216-29.207 41.311-53.392 41.311-24.183 0-44.853-17.094-53.391-41.311h-21.216c-8.544 24.216-29.214 41.311-53.391 41.311-24.183 0-44.852-17.094-53.39-41.311h-14.821c-8.538 24.216-29.207 41.311-53.39 41.311-24.185 0-44.853-17.094-53.391-41.311h-21.215c-8.545 24.217-29.213 41.311-53.39 41.311-24.184 0-44.852-17.094-53.391-41.311h-21.545v-903.609c0-43.576 34.387-78.918 76.803-78.918h52.259l-1.065 60.819 792.528 1.064-2.13-61.884h28.81c42.416 0 76.795 35.342 76.795 78.918v903.61h-18.876zM347.177 808.691l125.731-1.5v-29.599l-91.78-1.499v-35.448l82.957-1.499v-29.6l-82.957 1.5v-44.399l94.765-1.499v-29.615l-130.202 1.5 1.486 171.658zM175.443 810.176h38.428l66.652-121.397 1.5 119.913h32.573l-1.492-170.28h-35.564l-69.524 124.382-1.492-122.882h-32.58l1.499 170.264zM488.532 253.378h-358.398v299.219h358.398v-299.219zM820.64 693.127c-4.475 2.879-13.307 7.362-28.105 10.346-28.111 7.452-45.894 13.301-54.725 20.753-8.838 7.483-13.306 17.799-13.306 32.583 0 17.694 5.959 31.099 17.781 39.946 11.814 8.832 28.104 13.3 48.871 13.3 17.78-1.5 34.071-5.967 45.879-16.284 11.829-10.316 17.789-23.662 19.288-41.416h-34.080c0 7.452-4.347 14.815-10.321 19.269-5.848 4.469-14.8 7.452-25.13 7.452-8.942 0-16.283-1.484-20.766-5.982-4.468-2.984-7.459-8.817-7.459-16.285 0-4.349 1.499-8.817 7.459-11.816 5.968-2.864 16.298-5.847 34.072-10.316 25.242-5.968 41.532-11.816 50.369-19.283 7.333-7.333 11.815-19.164 11.928-37.052 0-16.179-5.968-29.599-19.273-38.432-13.419-8.832-29.597-13.315-51.848-13.315-20.766 1.5-38.546 5.968-50.376 16.284-11.809 10.347-19.267 25.132-19.267 42.915h34.073c1.498-8.952 4.361-16.284 10.321-20.768 5.848-4.468 14.806-7.452 25.13-7.452 11.82 0 20.645 2.984 26.612 5.968 7.347 2.984 10.33 8.847 10.33 14.8 0.002 7.332-2.982 11.801-7.457 14.785zM538.069 635.532l-45.878 171.659h38.539l26.621-125.76 25.113 124.275h38.555l23.63-124.275 28.111 124.275h35.555l-48.863-170.175h-34.079l-26.611 134.712-28.107-134.712h-32.586zM894.376 277.369h-337.040v40.005h337.040v-40.005zM894.376 386.187h-337.040v40.005h337.040v-40.005zM894.376 511.002h-337.040v41.594h337.040v-41.594z" />
<glyph unicode="&#xe92b;" glyph-name="fresh" d="M237.096 616.945c0 0 130.691 145.088 274.536 174.485 181.303 37.038 404.88 168.296 404.88 168.296s143.602-352.423 97.749-597.060c-48.882-260.688-178.144-339.050-178.144-339.050s-97.705-63.77-211.232-51.186c-100.878 11.195-160.259 91.705-160.259 91.705s106.92 93.903 193.374 208.829c75.407 100.253 145.015 262.416 145.015 262.416s-180.771-249.641-308.966-363.032c-184.447-163.129-424.049-230.296-424.049-230.296s-56.742-27.158-69.348 33.582c-7.486 35.999 52.011 43.184 52.011 43.184s82.589 3.030 124.532 20.793c71.468 30.262 184.995 99.534 184.995 99.534s-183.77 33.38-216.525 199.524c-33.102 167.928 91.431 278.276 91.431 278.276z" />
<glyph unicode="&#xe92c;" glyph-name="info-inquire" d="M936.010 960v0c53.799 0 87.978-17.637 87.978-55.006v-381.577c0-21.455-8.865-35.053-23.655-49.625l-525.394-509.28c-29.346-28.932-77.178-40.791-106.663-11.706l-349.9 366.857c-29.193 28.772-21.476 60.412 8.177 89.702l529.49 524.172c0 0 22.92 26.463 43.92 26.463h336.047zM858.019 606.616v0c50.087 49.908 50.087 130.683 0 180.446-50.116 49.907-131.39 49.907-181.584 0-50.226-49.763-50.226-130.538 0-180.446 50.071-49.885 131.344-49.885 181.584 0v0z" />
<glyph unicode="&#xe92d;" glyph-name="lucky-draw" d="M0-12.777c0-28.254 26.952-51.073 60.296-51.073h413.62v328.343h-473.916v-277.27zM576.282-63.851h387.59c33.345 0 60.128 22.819 60.128 51.073v277.271h-447.718v-328.344zM0 377.237h473.916v328.359h-413.62c-33.344 0-60.296-22.819-60.296-51.073v-277.286zM576.282 377.237h447.718v277.286c0 28.254-26.783 51.073-60.128 51.073h-387.59v-328.359zM425.313 774.625c0 0 2.105 61.632-61.786 59.434-61.787-2.129-60.711-59.434-60.711-59.434h-142.841v44.594c0 0 46.343 152.605 201.432 140.063 104.395-8.446 127.752-44.511 127.752-44.511h44.744c0 0 18.195 53.056 145.978 43.929 151.078-10.789 176.801-149.038 176.801-149.038v-35.038h-140.539c0 0-8.527 58.369-61.77 61.555-64.537 3.852-63.938-61.555-63.938-61.555h-165.122z" />
<glyph unicode="&#xe92e;" glyph-name="health" d="M899.107 755.2l-99.031 0.193-1.5 137.993c0 37.549 0 66.613-41.998 66.613l-488.578 0.001c-35.324 0-36-24.452-36-62v-142.8h-103.556c-70.651 0-128.444-61.433-128.444-136.533v-546.133c0-75.101 57.792-136.534 128.444-136.534h770.664c70.651 0 128.446 61.433 128.446 136.533v546.134c0 75.098-57.795 136.533-128.447 136.533zM365 852.333l311.334 0.333 0.333-97.333h-311l-0.667 97zM770.666 277.332h-192.669v-204.799h-128.442v204.799h-192.665v136.532h192.665v204.803h128.442v-204.802h192.669v-136.533z" />
<glyph unicode="&#xe92f;" glyph-name="price" d="M124.226-64c-93.866 0-124.226 48-124.226 122.167v785.388c0 67.095 61.534 116.445 137.229 116.445h491.715l394.722-386.948v-486.059c0-85.545-26.024-150.993-124.241-150.993h-775.199zM936.921 542.487l-331.786 331.632c0 0-474.489 5.139-483.681 4.352-25.486-2.18-28.729-32.179-28.647-56.718 0.065-17.475-1.516-712.31 0-746.118 1.532-33.836 21.054-58.917 59.007-56.719 21.657 1.228 691.798-0.813 724.374 0 44.455 1.081 60.733 20.702 60.733 47.981 0 33.818 0 475.59 0 475.59zM217.536 547.578h575.638c30.313 0 54.838-16.13 54.838-36.015v-378.103c0-19.895-24.524-36.017-54.838-36.017h-575.638c-30.294 0-54.819 16.122-54.819 36.017v378.102c-0.001 19.885 24.524 36.016 54.819 36.016v0 0zM273.268 642.852h-112.784v191.982h112.784v-191.982zM429.416 647.22h-99.764v191.974h99.764v-191.974zM581.246 647.22h-95.43v191.974h95.43v-191.974z" />
<glyph unicode="&#xe930;" glyph-name="academic" d="M46.26-1.721l219.464 80.138-116.469 116.957zM577.722 936.416c-76.658-92.005-62.709-239.647-62.709-239.647l-131.324-138.322c0 0-171.807 13.95-236.194-3.459s-147.412-100.221-147.412-100.221l529.241-518.612c0 0 88.355 108.149 99.476 176.229 8.027 49.277 7.089 228.212 7.089 228.212l124.315 114.17c0 0 194.198-4.933 243.746 46.619 117.208 151.727-321.901 560.251-426.228 435.031zM947.805 574.431c-20.332-18.979-106.056 35.985-191.516 122.754-85.541 86.704-138.364 172.432-118.029 191.426 20.249 18.946 106.037-36.033 191.563-122.77 85.427-86.737 138.265-172.48 117.982-191.41z" />
<glyph unicode="&#xe931;" glyph-name="brief-introduction" d="M0 23.26h62.994v643.231l329.963 53.892 51.863-19.034 44.198-377.044 17.093-16.116v589.595l329.96 53.891 139.018-51.003v-877.419h48.911v-87.257h-268.048v914.454l-169.694-27.694v-886.756h-273.447v683.157l-169.664-27.694v-655.46h-143.142v87.259h-0.004l-0.001-0.002zM684.148 699.093c0-18.121 0-36.296 0-54.412 6.356 0.514 12.769 1.063 19.188 1.584 6.417 0.514 12.902 1.064 19.384 1.614 0 18.26 0 36.582 0 54.873-6.481-0.635-12.967-1.238-19.384-1.844-6.419-0.607-12.836-1.211-19.188-1.815v0 0zM684.148 794.984c0-18.235 0-36.411 0-54.529 6.356 0.665 12.769 1.353 19.188 1.988 6.417 0.688 12.867 1.354 19.384 2.016 0 18.291 0 36.609 0 54.987-6.512-0.75-12.967-1.498-19.384-2.243-6.419-0.754-12.836-1.474-19.188-2.219v0 0zM684.148 603.286c0-18.12 0-36.292 0-54.412 6.356 0.376 12.769 0.812 19.188 1.182 6.417 0.402 12.902 0.803 19.384 1.21 0 18.26 0 36.608 0 54.872-6.481-0.458-12.967-0.949-19.384-1.438-6.42-0.462-12.837-0.949-19.188-1.415v0 0.001zM684.148 507.485c0-18.12 0-36.294 0-54.411 6.356 0.261 12.769 0.545 19.188 0.802 6.417 0.263 12.902 0.551 19.384 0.812 0 18.26 0 36.582 0 54.872-6.481-0.344-12.967-0.688-19.384-1.036-6.419-0.35-12.836-0.697-19.188-1.039v0zM684.148 411.68c0-18.177 0-36.29 0-54.412 6.356 0.146 12.769 0.288 19.188 0.405 6.417 0.146 12.867 0.261 19.384 0.403 0 18.261 0 36.552 0 54.872-6.512-0.2-12.967-0.403-19.384-0.634-6.42-0.203-12.837-0.403-19.188-0.637v0 0.003zM614.938 692.523c0-17.83 0-35.748 0-53.606 6.156 0.518 12.374 1.037 18.599 1.557 6.25 0.519 12.503 1.035 18.792 1.553 0 18.004 0 36.065 0 54.037-6.288-0.577-12.539-1.178-18.792-1.756-6.225-0.604-12.443-1.206-18.599-1.785v0 0zM614.938 787.004c0-17.946 0-35.864 0-53.696 6.156 0.635 12.374 1.268 18.599 1.902 6.219 0.665 12.503 1.294 18.792 1.958 0 18.004 0 36.063 0 54.15-6.288-0.721-12.572-1.439-18.792-2.162-6.225-0.717-12.442-1.435-18.599-2.156v0 0.004zM614.938 598.161c0-17.831 0-35.748 0-53.606 6.156 0.376 12.374 0.78 18.599 1.153 6.219 0.404 12.503 0.803 18.792 1.178 0 18.004 0 36.066 0 54.039-6.288-0.463-12.572-0.925-18.792-1.383-6.225-0.457-12.443-0.922-18.599-1.381v0 0zM614.938 503.798c0-17.859 0-35.745 0-53.606 6.156 0.261 12.374 0.518 18.599 0.78 6.219 0.261 12.503 0.519 18.792 0.776 0 18.005 0 36.066 0 54.071-6.288-0.347-12.572-0.693-18.792-1.006-6.225-0.346-12.442-0.665-18.599-1.010v0-0.005zM614.938 409.438c0-17.889 0-35.748 0-53.606 6.156 0.145 12.374 0.261 18.599 0.375 6.219 0.146 12.503 0.263 18.792 0.404 0 18.004 0 36.007 0 54.064-6.288-0.23-12.572-0.434-18.792-0.635-6.225-0.205-12.443-0.401-18.599-0.602v0 0zM684.148 314.784c0-18.177 0-36.324 0-54.381 6.356 0 12.769 0 19.188 0 6.417 0 12.867 0 19.384 0 0 18.235 0 36.495 0 54.814-6.512-0.056-12.967-0.143-19.384-0.201-6.419-0.087-12.836-0.173-19.188-0.232v0 0zM614.938 313.949c0-17.89 0-35.748 0-53.548 6.156 0 12.374 0 18.599 0 6.219 0 12.503 0 18.792 0 0 17.945 0 35.949 0 53.979-6.288-0.057-12.572-0.146-18.792-0.2-6.225-0.087-12.443-0.147-18.599-0.231v0zM171.433 456.087c0-19.955 0-39.912 0-59.865 6.153 0.516 12.341 0.997 18.531 1.51 6.218 0.515 12.503 1.026 18.728 1.543 0 20.149 0 40.296 0 60.444-6.224-0.614-12.509-1.187-18.728-1.8-6.226-0.612-12.38-1.221-18.531-1.833v0 0.001zM240.512 462.836c0-20.344 0-40.648 0-60.961 6.417 0.515 12.835 1.059 19.25 1.571 6.417 0.513 12.902 1.062 19.447 1.608 0 20.499 0 41 0 61.537-6.547-0.644-13.031-1.252-19.447-1.897-6.416-0.61-12.832-1.251-19.25-1.863v0 0.005zM240.512 570.035c0-20.372 0-40.681 0-60.99 6.417 0.674 12.769 1.38 19.25 2.090 6.417 0.708 12.902 1.413 19.415 2.153 0 20.504 0 41.002 0 61.605-6.512-0.837-12.998-1.638-19.415-2.441-6.48-0.803-12.832-1.609-19.25-2.414v0-0.003zM240.512 355.666c0-20.346 0-40.648 0-60.962 6.417 0.355 12.835 0.709 19.25 1.064 6.417 0.318 12.902 0.703 19.447 1.058 0 20.498 0 41.036 0 61.537-6.547-0.451-13.031-0.896-19.447-1.35-6.415-0.454-12.832-0.931-19.25-1.351v0 0.004zM240.512 248.496c0-20.34 0-40.648 0-60.96 6.417 0.195 12.835 0.354 19.25 0.516 6.417 0.193 12.902 0.355 19.447 0.547 0 20.504 0 41.037 0 61.536-6.547-0.256-13.031-0.546-19.447-0.803-6.416-0.293-12.832-0.576-19.25-0.838v0 0.002zM240.512 141.328c0-20.344 0-40.647 0-60.861 6.417 0 12.769 0 19.25 0 6.417 0 12.902 0 19.415 0 0 20.405 0 40.938 0 61.442-6.512-0.097-12.998-0.193-19.415-0.292-6.48-0.097-12.832-0.193-19.25-0.291v0 0.002zM171.433 561.423c0-20.021 0-39.972 0-59.933 6.153 0.675 12.306 1.349 18.531 2.025 6.218 0.674 12.503 1.381 18.728 2.056 0 20.148 0 40.296 0 60.51-6.224-0.802-12.509-1.572-18.728-2.347-6.226-0.766-12.38-1.539-18.531-2.311v0 0zM171.433 350.813c0-19.955 0-39.912 0-59.865 6.153 0.319 12.306 0.675 18.531 0.997 6.218 0.355 12.503 0.676 18.728 1.027 0 20.148 0 40.297 0 60.479-6.224-0.452-12.509-0.905-18.728-1.315-6.226-0.453-12.38-0.87-18.531-1.321v0-0.002zM171.433 245.54c0-19.955 0-39.943 0-59.898 6.153 0.162 12.306 0.354 18.531 0.516 6.218 0.162 12.503 0.354 18.728 0.515 0 20.148 0 40.296 0 60.478-6.224-0.291-12.509-0.547-18.728-0.803-6.226-0.296-12.38-0.553-18.531-0.808v0 0zM171.433 140.27c0-19.987 0-39.944 0-59.804 6.153 0 12.306 0 18.531 0 6.218 0 12.503 0 18.728 0 0 20.054 0 40.201 0 60.35-6.224-0.1-12.509-0.195-18.728-0.293-6.226-0.065-12.38-0.159-18.531-0.255v0.002zM685.148 221.784c0-18.177 0-36.324 0-54.381 6.356 0 12.769 0 19.188 0 6.417 0 12.867 0 19.384 0 0 18.235 0 36.495 0 54.814-6.512-0.056-12.967-0.143-19.384-0.201-6.419-0.087-12.836-0.173-19.188-0.232v0 0zM615.938 220.949c0-17.89 0-35.748 0-53.548 6.156 0 12.374 0 18.599 0 6.219 0 12.503 0 18.792 0 0 17.945 0 35.949 0 53.979-6.288-0.057-12.572-0.146-18.792-0.2-6.225-0.087-12.443-0.147-18.599-0.231v0z" />
<glyph unicode="&#xe932;" glyph-name="parents-help" d="M101.304 561.112l402.73 322.066 402.736-322.066c15.556-12.444 38.585-9.365 51.439 6.861 12.855 16.213 10.65 39.441-4.905 51.899l-163.968 131.133v123.681h-64.414v-72.189l-178.224 142.536c-16.934 14.103-57.577 24.803-85.322 0l-406.606-325.161c-15.563-12.458-17.76-35.686-4.905-51.899 12.854-16.226 35.884-19.305 51.439-6.861zM872.146 440.173v92.465l-368.112 288.897-377.23-288.897v-330.517c0 0 55.219-97.077 200.91-92.451 115.216 3.656 187.104 104.782 230.048 129.431 42.931 24.649 85.883 6.16 52.14-35.433-44.477-47.767-125.755-126.352-229.719-136.884-109.997-11.165-257.977 61.376-317.793 75.254-59.802 13.863-81.278-50.858-43.7-69.336 37.57-18.488 218.537-93.997 218.537-93.997s306.722-93.998 458.55-3.093c128.995 77.238 328.198 189.542 328.198 189.542v272.712l-151.829 2.307z" />
<glyph unicode="&#xe933;" glyph-name="finding-lost" d="M0.46 392.525l1023.54 567.475-194.045-855.94-377.431 132.41 336.915 456.345-435.004-423.242-353.975 122.952zM439.73 170.264l123.678-40.194-95.958-193.888-27.72 234.082z" />
<glyph unicode="&#xe934;" glyph-name="business-handling" d="M975.599 807.894h-261.244v71.982c0 44.179-35.796 80.124-79.805 80.124h-245.084c-43.999 0-79.8-35.945-79.8-80.124v-71.982h-261.247c-26.702 0-48.346-21.73-48.346-48.539l-0.032-219.855h187.413v39.663c0 25.289 20.42 45.787 45.602 45.787h9.121c25.181 0 45.598-20.499 45.598-45.787v-39.663h448.405v39.663c0 25.289 20.416 45.787 45.599 45.787h9.119c25.186 0 45.603-20.499 45.603-45.787v-39.663h187.414l0.032 219.854c0 26.809-21.643 48.54-48.348 48.54zM645.952 807.894h-267.884v71.982c0 6.311 5.115 11.445 11.401 11.445h245.084c6.285 0 11.398-5.134 11.398-11.445v-71.982h0.001zM836.103 419.287c0-25.286-20.417-45.787-45.603-45.787h-9.119c-25.183 0-45.599 20.501-45.599 45.787v31.317h-448.403v-31.317c0-25.286-20.417-45.787-45.598-45.787h-9.121c-25.182 0-45.602 20.501-45.602 45.787v31.317h-158.376l0.43-468.816c0-25.283 20.419-45.788 45.602-45.788h874.592c25.182 0 45.6 20.504 45.6 45.788l-0.43 468.816h-158.375v-31.317h0.002z" />
<glyph unicode="&#xe935;" glyph-name="one-card" d="M942.447 134.384h-213.468v455.808h80.937v94.6h-80.937v17.2h101.334v-111.808h61.164c22.513 0 40.777 15.4 40.777 34.4v154.816h-203.275v17.192h80.937v94.608h-112.136v-92.256h-20.379v92.256h-101.961v-92.256h-20.378v92.256h-71.369c-22.522 0-40.777-15.4-40.777-34.408v-57.848h-101.94c0 55.88 0 92.256 0 92.256 0 37.991 36.519 68.8 81.553 68.8h519.918c45.034 0 81.553-30.809 81.553-68.8v-688.017c-0.010-37.999-36.519-68.799-81.553-68.799zM932.244 856.8c0 19-18.264 34.408-40.776 34.408h-61.164v-94.608h101.94v60.2zM683.024 692.824v-688.017c0-38-36.52-68.808-81.553-68.808h-431.566c0 0.001-169.905 136.649-169.905 140.473 0 176.208 0 616.352 0 616.352 0 37.992 36.519 68.8 81.563 68.8h519.919c45.034 0 81.542-30.808 81.542-68.8zM356.804 391.816h112.144v94.6h-112.144v-94.6zM234.474 391.816h101.941v94.6h-101.941v-94.6zM101.951 426.208c0-18.992 18.254-34.4 40.776-34.4h71.358v94.608h-112.134v-60.208zM214.085 692.824h-71.358c-22.522 0-40.777-15.4-40.777-34.408v-60.2h112.135v94.608zM336.415 692.824h-101.941v-94.608h101.941v94.608zM468.948 692.824h-112.144v-94.608h112.144v94.608zM591.277 658.416c0 19-18.265 34.408-40.786 34.408h-61.155v-94.608h101.941v60.2zM591.277 581.016h-489.326v-77.4h387.385v-111.809h61.155c22.521 0 40.786 15.408 40.786 34.4v154.809z" />
<glyph unicode="&#xe936;" glyph-name="hospital-subscribe" d="M711.912 959.875c-73.386 0-144.244-29.708-199.948-82.876-55.745 53.167-126.577 82.876-200.003 82.876-172.016 0-311.961-159.825-311.961-356.273 0-22.048 1.33-43.999 3.963-65.835 1.908-15.929 58.243 9.384 55.731-58.466-1.021-27.247-21.739-23.822-22.236-42.302-1.021-38.915 14.389-71.332 32.971-106.168 36.989-69.443 88.675-136.55 153.556-199.59 72.014-69.905 161.818-135.591 252.898-185.001 1.357-0.725 2.297-1.284 2.875-1.539 9.942-5.666 21.054-8.701 32.206-8.701 11.097 0 22.249 3.035 32.178 8.701 0.551 0.255 1.532 0.814 2.849 1.539 91.066 49.41 180.843 115.096 252.87 185.001 64.882 62.963 116.608 130.146 153.625 199.513 20.434 38.338 34.285 68.175 40.938 109.124 3.238 19.814-18.932 18.205-18.944 49.692-0.041 53.175 41.301 27.645 43.289 40.042 4.636 28.879 5.146 44.722 5.146 73.99-0.001 196.448-139.946 356.273-312.003 356.273zM114.323 447.955c-17.91 0-32.393 15.31-32.393 34.189 0 18.874 14.483 34.185 32.393 34.185 17.869 0 32.38-15.311 32.38-34.185 0-18.879-14.511-34.189-32.38-34.189zM835.010 442.636l-142.51 0.599-109.046-225.707-4.098-0.508-171.76 379.242-58.996-135.634h-163.9c0 0-3.722 14.021-5.724 29.843-2.082 16.489 5.724 32.438 5.724 32.438h120.638l98.55 216.32 2.19 0.058 174.582-372.798 69.882 141.764 184.468 0.799c0 0 8.262-15.312 7-32.346-1.816-23.964-7-34.070-7-34.070zM914.951 447.955c-17.883 0-32.394 15.31-32.394 34.189 0 18.874 14.511 34.185 32.394 34.185s32.379-15.311 32.379-34.185c0-18.879-14.496-34.189-32.379-34.189z" />
<glyph unicode="&#xe937;" glyph-name="move-work" d="M976.574 251.948c0 0-92.595 63.83-129.963 109.98-37.358 46.151-106.777 284.905-106.777 284.905l-78.014 0.361 0.139 111.090c0 0-1.271 22.628-33.534 22.628-32.275 0-31.428-22.628-31.428-22.628l-0.283-110.499-168.88 1.681-1.527 108.745c0 0-8.349 22.702-35.646 22.702-22.075 0-27.748-24.477-27.748-24.477l-1.081-109.242-79.331 2.306c0 0-69.763-239.566-97.342-275.067-27.568-35.501-139.253-122.485-139.253-122.485l-1.71-250.281c0 0 1.415-28.962 16.992-46.145 15.565-17.169 35.659-19.522 35.659-19.522h835.567c0 0 21.122 2.42 33.972 23.072 12.839 20.652 10.188 47.932 10.188 47.932v244.944zM379.918 173.703c-20.672 0-37.434 16.671-37.434 37.244 0 20.569 16.762 37.24 37.434 37.24 20.685 0 37.447-16.671 37.447-37.24 0-20.573-16.761-37.244-37.447-37.244zM379.918 315.637c-20.672 0-37.434 16.67-37.434 37.244s16.762 37.245 37.434 37.245c20.685 0 37.447-16.67 37.447-37.245s-16.761-37.244-37.447-37.244zM380.523 433.918c-20.671 0-37.434 16.67-37.434 37.245s16.762 37.244 37.434 37.244c20.674 0 37.435-16.67 37.435-37.244s-16.761-37.245-37.435-37.245zM511.182 173.703c-20.672 0-37.434 16.671-37.434 37.244 0 20.569 16.762 37.24 37.434 37.24s37.434-16.671 37.434-37.24c0-20.573-16.761-37.244-37.434-37.244zM511.182 315.637c-20.672 0-37.434 16.67-37.434 37.244s16.762 37.245 37.434 37.245c20.673 0 37.434-16.67 37.434-37.245s-16.761-37.244-37.434-37.244zM511.787 433.918c-20.672 0-37.434 16.67-37.434 37.245s16.762 37.244 37.434 37.244 37.435-16.67 37.435-37.244c0-20.575-16.763-37.245-37.435-37.245zM643.655 173.703c-20.673 0-37.434 16.671-37.434 37.244 0 20.569 16.761 37.24 37.434 37.24s37.436-16.671 37.436-37.24c0-20.573-16.762-37.244-37.436-37.244zM643.655 315.637c-20.673 0-37.434 16.67-37.434 37.244s16.761 37.245 37.434 37.245c20.674 0 37.436-16.67 37.436-37.245s-16.762-37.244-37.436-37.244zM644.259 433.918c-20.683 0-37.444 16.67-37.444 37.245s16.762 37.244 37.444 37.244c20.673 0 37.438-16.67 37.438-37.244s-16.765-37.245-37.438-37.245zM1022.434 834.169c-3.394 79.877-73.027 124.253-137.566 124.253s-675.924 3.549-757.457 0c-81.505-3.549-127.365-79.877-127.365-122.485 0-42.594 0-168.628 0-168.628s10.188-24.847 107.839-24.847c78.985 0 185.588 15.986 187.659 83.427 1.698 55.024 46.941 106.499 93.418 104.731 105.24-4.021 101.896-136.677 101.896-136.677l52.935-1.781c0 0-7.307 136.111 88.104 132.603 94.113-3.462 92.504-87.871 98.424-123.729 10.044-60.874 103.591-58.574 186.81-58.574 93.403 0 105.303 31.952 105.303 31.952s3.396 79.877 0 159.755z" />
<glyph unicode="&#xe938;" glyph-name="educational" d="M386.332 494.184h231.439l1.648-299.775 104.372 1.248-221.245-259.675-224.543 256.354 107.671 0.667zM343.006 258.132h-227.166c0 0-95.855 27.873-113.589 135.435-14.539 88.261 46.623 171.387 46.623 171.387s-13.391 107.765 43.984 173.285c61.061 69.74 162.178 52.527 162.178 52.527s-4.602 156.68 198.263 168.63c196.644 11.587 204.843-147.443 204.843-147.443s120.157 27.902 179.238-45.812c50.007-62.389 33.491-163.381 33.491-163.381s134.924-13.834 151.653-153.374c17.679-147.472-128.027-191.254-128.027-191.254h-231.092l1.178 275.773-321.577 1.145v-276.918z" />
<glyph unicode="&#xe939;" glyph-name="feedback" d="M765.422 153.037v-82.021c0 0-13.767 0.478-26.38-10.118-12.614-10.606-16.976-26.326-16.976-26.326h-563.271c0 0 3.668 15.004-14.977 30.368-18.656 15.361-32.963 9.116-32.963 9.116v552.834h140.821c0 0 39.981 18.425 49.938 29.354 9.945 10.94 33.95 62.772 33.95 62.772l3.985 135.688h226.037l109.54 105.296h-387.501l-287.625-284.508c0 0 0-614.593 0-659.142s33.95-81.008 98.876-82.021c64.915-1.002 594.224-0.106 666.545 0 72.332 0.118 95.455 31.391 94.468 85.058-0.999 53.67 0 185.279 0 185.279l-94.467-51.629zM1013.336 558.861l-57.661 55.765c24.299 32.286 49.468 108.205 14.859 147.249l-83.688 112.565c-46.424 56.218-129.112 42.523-166.448 0.31l-216.869-197.138c-23.97-20.117-22.453-49.233-6.712-80.434-4.679-2.611-9.063-5.804-13.025-9.631l-228.4-226.586c-11.685-21.452-12.896-123.902-8.288-144.519l-22.289-21.917c-24.781-16.353-16.435-67.612-16.435-67.612s54.041-19.428 74.672 6.734l28.672 28.174c41.204-5.409 123.282 2.383 144.947 24.291l214.975 201.236c5.031 4.85 9.017 10.475 12.19 16.576 22.807-6.292 42.626-5.553 50.079-0.856l137.765 130.525 50.961-49.292-120.19-120.528c-2.468-2.492-4.313-5.351-5.631-8.401-6.583 2.752-13.766 4.301-21.324 4.301-31.164 0-56.427-25.86-56.427-57.754s25.263-57.754 56.427-57.754 56.427 25.86 56.427 57.754c0 6.055-0.917 11.906-2.621 17.389 3.785 1.252 7.358 3.277 10.368 6.304l134.649 141.694c10.415 3.409 20.854 9.929 29.753 19.379 22.077 23.443 26.216 55.765 9.264 72.176z" />
<glyph unicode="&#xe93a;" glyph-name="fingerpost" d="M796.313 429.991c-4.618 13.212-10.405 26.499-17.326 40.378-20.273 41.197-51.656 83.5-93.978 126.47-48.463 49.264-94.547 85.237-138.607 108.222-22.082 11.25-43.776 20.319-65.574 26.982-28.763 134.502-86.989 227.957-86.989 227.957l-156.924-154.896c0 0 33.301-32.608 71.042-78.354-5.468-2.332-10.937-4.774-16.19-7.402-28.758-14.619-64.084-42.118-105.943-82.315l-185.824-178.395 515.693-524.554 191.363 183.544c37.354 36.235 63.727 68.929 79.175 98.024 5.783 11.402 10.722 22.619 14.804 33.828 42.322-34.497 59.114-62.666 59.114-62.666l163.315 154.565c0 0.001-82.972 61.295-227.151 88.612zM605.549 534.29c33.056-33.238 57.947-64.106 75.377-91.976-127.030 0.632-283.607-107.893-339.88-150.525 46.367 51.704 156.327 187.095 154.873 307.754 0 7.918-0.57 15.212-1.171 22.69 31.597-15.696 68.414-44.75 110.801-87.943zM275.826 579.258c17.965 16.324 32.734 28.761 38.239 32.127 19.42 12.657 38.556 21.171 57.691 25.949 4.616-7.848 9.020-15.102 13.1-23.025 55.387-103.038-22.046-269.926-55.137-331.367-4.331-3.591-7.243-5.697-8.981-6.846l-178.085 181.32c0 0 81.267 76.205 133.173 121.842zM685.293 255.18c-12.816-19.357-37.456-46.563-73.956-81.584l-97.173-93.72-190.195 193.44c0 0 0 0.299 0.213 0.667l-0.213-0.667-2.946 2.777c1.207 0.554 3.16 1.813 6.958 3.849-1.42-2.036-2.591-4.179-3.798-5.959 2.059 1.78 4.969 4.812 8.77 8.958 40.544 22.172 175.108 85.051 322.448 46.558 19.74-7.177 37.987-14.765 54.568-22.909-5.219-17.247-13.102-34.162-24.676-51.41z" />
<glyph unicode="&#xe93b;" glyph-name="recruit-students" d="M145.99 615.041l-145.893-632.716 270.311 272.893c-9.557 17.821-14.989 38.209-14.989 59.867 0 69.775 56.29 126.347 125.737 126.347s125.736-56.571 125.736-126.347c0-69.783-56.29-126.354-125.736-126.354-25.892 0-64.938 14.784-64.938 14.784l-266.211-267.487 643.105 148.534 113.265 318.288-322.516 347.226-337.871-135.035zM976.526 686.379l-222.813 227.279c-48.802 48.264-77.488 60.086-107.835 29.308l-102.008-100.986c-37.901-35.348-9.835-70.637 27.565-108.773l222.815-227.286c37.385-38.111 71.331-67.079 107.82-29.294l102.009 100.972c27.933 29.367 32.89 48.615-27.553 108.78z" />
<glyph unicode="&#xe93c;" glyph-name="forum" d="M980.895 569.046l2.007-337.769c0-82.7-115.78-59.87-255.391-59.87h-338.427l-0.553-105.085c0-61.139 77.445-44.267 170.833-44.267h250.774c0 0 109.538-85.281 130.619-85.281 21.316 0 3.27 83.65 3.27 83.65s79.969 13.093 79.969 53.841v311.736c0 89.559 12.9 164.89-43.101 183.045zM940.662 289.537l-2.48 416.994c-2.178 171.551 9.56 253.469-94.795 253.469h-740.9c-122.717 0-101.654-122.148-101.654-262.151l-1.375-412.35c0-55.18 110.915-73.979 110.915-73.979s1.343-145.627 25.046-145.627c48.716 0 175.099 147.768 175.099 147.768h374.851c139.625-0.001 255.293-6.807 255.293 75.876z" />
<glyph unicode="&#xe93d;" glyph-name="direct-train" d="M879.774 960h-745.541c-53.998 0-134.233-92.315-134.233-141.741v-753.008c0-49.426 85.859-129.251 139.857-129.251h739.917c53.998 0 144.226 91.074 144.226 140.483v734.282c0 49.426-90.228 149.235-144.226 149.235zM878 422.5l-170.229 0.457-0.631 127.899-254.54-227.237 254.54-240.889v126.657l171.36 0.613-1.246-127.27h-722.666l0.412 382.77 167.213-0.015-0.713-127.985 257.741 227.008-253.296 225.993v-113.618l-171.445-0.883 0.088 104.565 24.831 22.358h697.835l0.746-380.423z" />
<glyph unicode="&#xe93e;" glyph-name="exploit" d="M661.813 927.328c-9.581 17.269-33.951 31.924-53.233 31.954l-184.959 0.621c0.067-0.069 0.157-0.138 0.268-0.248 1.718-1.272 3.369-2.719 4.997-4.239 0.223-0.22 0.458-0.404 0.703-0.634 1.595-1.567 3.179-3.278 4.696-5.069 0.313-0.363 0.625-0.715 0.915-1.071 1.471-1.826 2.943-3.767 4.349-5.812 0.245-0.346 0.479-0.732 0.691-1.066 1.472-2.201 2.901-4.482 4.238-6.918l76.244-138.341 75.543-136.192-77.304-45.784 248.352-69.603 67.411 256.637-77.751-45.663-95.16 171.428zM25.624 509.286l77.293-46.48-95.618-171.119c-9.647-17.24-9.647-46.387 0-63.634l92.484-165.438c0.022 0.128 0.056 0.243 0.056 0.357 0.223 2.188 0.603 4.413 1.048 6.63 0.089 0.312 0.134 0.609 0.178 0.91 0.514 2.224 1.149 4.505 1.896 6.769 0.134 0.442 0.29 0.875 0.424 1.331 0.781 2.247 1.662 4.504 2.677 6.813 0.155 0.393 0.356 0.76 0.49 1.141 1.15 2.413 2.32 4.822 3.682 7.253l77.481 137.599 75.966 135.944 77.237-46.015-66.63 256.787-248.664-68.848zM125.648 84.615c-5.331-9.646-8.164-18.764-8.32-27.086-0.022-1.36 0.022-2.69 0.156-3.963 0.044-0.45 0.133-0.849 0.201-1.295 0.111-0.832 0.2-1.666 0.379-2.443 0-0.029 0-0.047 0.034-0.064 0.121-0.646 0.334-1.272 0.523-1.885 0.157-0.517 0.291-1.036 0.446-1.519 0.034-0.087 0.079-0.168 0.112-0.277 0.278-0.76 0.624-1.475 0.981-2.235 0.124-0.23 0.201-0.485 0.334-0.709 0.067-0.097 0.113-0.212 0.168-0.322 0.48-0.87 0.993-1.723 1.573-2.545 0.010-0.008 0.033-0.048 0.044-0.072 0.089-0.136 0.2-0.273 0.313-0.4 0.558-0.789 1.182-1.544 1.829-2.259 0.156-0.16 0.334-0.339 0.491-0.523 0.636-0.646 1.294-1.251 2.019-1.839 0.223-0.225 0.457-0.441 0.702-0.64 0.704-0.559 1.473-1.094 2.253-1.6 0.223-0.139 0.424-0.301 0.648-0.45 0.846-0.427 1.671-0.783 2.508-1.157 0.636-0.301 1.282-0.64 1.93-0.911 0.938-0.39 1.852-0.72 2.778-1.075 0.613-0.215 1.215-0.49 1.84-0.705 1.049-0.355 2.086-0.645 3.124-0.961 0.468-0.126 0.959-0.289 1.427-0.415 1.495-0.391 2.956-0.702 4.395-0.962h0.022c1.048-0.156 2.163-0.299 3.268-0.368l14.176-0.323h255.345v191.773h-220.927l-74.772-132.77zM410.606 946.735c-0.279 0.156-0.546 0.288-0.792 0.449-0.892 0.496-1.785 1.008-2.699 1.458-0.268 0.138-0.558 0.224-0.871 0.339-0.825 0.369-1.672 0.731-2.52 1.013-0.101 0.029-0.212 0.034-0.313 0.076-0.111 0.029-0.233 0.046-0.345 0.069-0.881 0.276-1.751 0.495-2.632 0.668-0.346 0.046-0.681 0.081-1.016 0.138-0.758 0.099-1.517 0.174-2.275 0.219-0.401 0.011-0.825 0-1.227 0-0.691 0-1.405-0.035-2.108-0.104-0.423-0.046-0.836-0.086-1.293-0.144-0.692-0.109-1.349-0.248-2.041-0.398-0.446-0.103-0.848-0.213-1.271-0.316-0.735-0.208-1.472-0.49-2.186-0.771-0.356-0.115-0.703-0.231-1.070-0.38-0.201-0.099-0.413-0.231-0.647-0.329-0.803-0.352-1.584-0.716-2.365-1.158-0.758-0.53-1.45-1.061-2.198-1.608-0.557-0.427-1.148-0.824-1.684-1.25-0.781-0.639-1.517-1.29-2.253-1.954-0.513-0.425-1.060-0.817-1.539-1.284-0.758-0.668-1.45-1.383-2.152-2.080-0.458-0.45-0.904-0.876-1.339-1.296-0.346-0.386-0.658-0.777-1.015-1.186v-0.87l-1.818-1.51-0.635-0.524c-0.515-0.68-0.994-1.359-1.451-2.080 0 0-0.022-0.029-0.033-0.035l-0.034-0.022-7.439-12.535-128.342-227.998 160.52-96.4 111.054 197.275-73.557 133.514c-5.365 9.637-11.578 16.74-18.414 21.014zM1008.023 225.83c-0.288-0.108-0.578-0.214-0.868-0.34-2.131-0.673-4.351-1.25-6.614-1.745-0.425-0.087-0.869-0.192-1.304-0.271-2.299-0.449-4.653-0.835-7.073-1.077-0.412-0.058-0.815-0.068-1.216-0.104-2.576-0.229-5.197-0.393-7.918-0.426l-153.883-0.756-152.21-1.21-0.691 92.069-180.551-189.418 183.462-186.567-0.413 92.414 191.335 1.545c19.283 0.144 43.553 14.913 53.058 32.24l91.277 166.204c-0.133-0.058-0.243-0.081-0.355-0.144-1.93-0.905-3.96-1.706-6.036-2.414zM1023.874 270.443c0.011 0.253 0.021 0.449 0.044 0.692-0.044 0.65-0.133 1.278-0.2 1.935-0.101 0.985-0.17 1.947-0.29 2.926-0.090 0.68-0.224 1.354-0.346 2.017-0.157 1.002-0.303 2.011-0.524 2.961-0.134 0.657-0.289 1.273-0.423 1.918-0.247 0.962-0.469 1.941-0.715 2.864-0.214 0.743-0.469 1.449-0.692 2.176l-1.327 1.020-0.524 0.433 0.277 2.661c-0.167 0.387-0.344 0.768-0.499 1.146-0.045 0.059-0.056 0.116-0.089 0.155l-0.010 0.019-6.884 12.752-129.358 227.368-160.051-97.195 111.925-196.74 148.73 0.73c10.617 0.088 19.854 2.247 26.745 6.28 0.848 0.496 1.651 1.042 2.432 1.601 0.401 0.271 0.793 0.549 1.18 0.847 0.693 0.548 1.364 1.129 1.987 1.706 0.223 0.213 0.47 0.391 0.681 0.611 0.056 0.040 0.077 0.085 0.1 0.113 0.736 0.749 1.451 1.516 2.064 2.322 0.056 0.052 0.1 0.115 0.144 0.167 0.067 0.087 0.102 0.168 0.156 0.219 0.669 0.887 1.295 1.792 1.853 2.737 0.067 0.131 0.111 0.247 0.155 0.369 0.536 0.92 1.018 1.865 1.404 2.867 1.251 3.093 1.943 6.526 2.055 10.276v0.047z" />
<glyph unicode="&#xe93f;" glyph-name="visitor" d="M960.080 910.436c0 27.384-21.498 49.564-47.988 49.564h-863.951c-26.522 0-47.989-22.212-47.989-49.564v-111.675h959.768l0.16 111.675zM816.020 357.091c-114.917 0-208.079-94.28-208.079-210.545s93.162-210.546 208.079-210.546c114.915 0 208.077 94.28 208.077 210.546 0 116.265-93.162 210.545-208.077 210.545zM903.934 98.113h-79.98c-13.245 0-23.994 10.863-23.994 24.248v113.162c0 13.385 10.749 24.248 23.994 24.248s23.993-10.863 23.993-24.248v-88.913h55.987c13.244 0 23.994-10.863 23.994-24.249 0-13.384-10.75-24.248-23.994-24.248zM815.955 421.431c52.979 0 102.246-15.552 144.061-42.031l0.506 327.947h-959.769l-0.601-527.759c0-27.384 21.499-49.563 47.988-49.563h496.712c-0.32 5.528-0.832 10.992-0.832 16.586 0.001 151.764 121.731 274.82 271.935 274.82zM384.092 228.28h-287.931c0 0-0.16-4.3-0.064 6.078-0.064 34.563 12.478 32.915 53.107 51.926 13.853 6.466 57.618 25.543 57.618 25.543s2.208 9.699 0 17.006c-10.333 5.852-20.859 31.813-22.171 42.549-9.598 4.268-12.445 22.309-13.309 25.542-0.799 2.975 0.864 11.639 7.294 12.124-1.855 5.595-2.879 11.51-2.879 17.652 0 1.424 0.128 2.847 0.224 4.27-0.096 1.421-0.224 2.813-0.224 4.267 0 32.915 28.761 51.053 64.272 51.053 35.479 0 64.272-18.171 64.272-51.053 0-1.423-0.128-2.846-0.224-4.267 0.096-1.423 0.224-2.813 0.224-4.27 0-6.143-0.991-12.092-2.879-17.652 6.462-0.485 8.094-9.149 7.294-12.124-0.832-3.233-3.711-21.274-13.308-25.542-1.313-10.735-11.838-36.697-22.171-42.549-2.719-7.953 0-17.006 0-17.006s43.766-19.045 57.619-25.543c40.629-19.011 53.171-17.33 53.107-51.926 0.129-3.814 0.129-5.302 0.129-6.078v0c0.032 0 0.032-1.357 0 0z" />
<glyph unicode="&#xe940;" glyph-name="framework" d="M856.132 355.665c92.55 0 167.862-75.307 167.862-167.861 0-92.561-75.313-167.872-167.862-167.872-92.565 0-167.871 75.311-167.871 167.872 0 64.31 36.757 119.624 89.99 147.808l-68.646 137.304c-43.971-31.407-97.608-50.106-155.644-50.106-42.618 0-82.8 10.252-118.633 28l-77.445-129.088c47.973-40.065 78.569-100.256 78.569-167.499 0-120.323-97.9-218.223-218.224-218.223s-218.223 97.9-218.223 218.223c0 120.325 97.9 218.236 218.223 218.236 29.040 0 56.721-5.815 82.090-16.158l78.921 131.535c-57.352 49.311-93.864 122.188-93.864 203.578 0 148.082 120.491 268.585 268.585 268.585 148.1 0 268.592-120.503 268.592-268.585 0-64.92-23.152-124.518-61.623-170.995l82.991-165.985c4.109 0.307 8.037 1.231 12.211 1.231v0z" />
<glyph unicode="&#xe941;" glyph-name="chart" d="M976.136-61.574h-924.994c-26.424 0-47.835 21.412-47.835 47.825s21.411 47.848 47.835 47.848h924.994c26.433 0 47.864-21.434 47.864-47.848s-21.432-47.825-47.864-47.825zM928.3 129.806h-127.568c-35.256 0-63.813 28.568-63.813 63.796v510.346c0 35.226 28.557 63.794 63.813 63.794h127.568c35.235 0 63.793-28.568 63.793-63.794v-510.346c0-35.228-28.558-63.796-63.793-63.796zM896.414 672.070h-63.794v-446.552h63.794v446.552zM577.447 129.806h-127.587c-35.237 0-63.814 28.568-63.814 63.796v701.726c0 35.226 28.577 63.793 63.814 63.793h127.587c35.235 0 63.773-28.568 63.773-63.793v-701.727c0.001-35.227-28.537-63.795-63.773-63.795zM545.539 863.41h-63.791v-637.932h63.791v637.932zM226.574 129.806h-127.587c-35.236 0-63.793 28.568-63.793 63.796v318.964c0 35.228 28.557 63.796 63.793 63.796h127.587c35.235 0 63.773-28.568 63.773-63.796v-318.964c0-35.228-28.538-63.796-63.773-63.796zM194.687 480.65h-63.793v-255.172h63.793v255.172z" />
<glyph unicode="&#xe942;" glyph-name="back" d="M267.984 446.603l414.308-414.33-96.275-96.273-510.603 510.603 510.603 510.603 96.275-96.275z" />
<glyph unicode="&#xe943;" glyph-name="activity" d="M1000.525 936.576c-57.523 57.549-198.042 17.715-362.266-88.909-39.424 12.39-81.382 19.072-124.8 19.072-230.118 0-417.28-187.187-417.28-417.254 0-43.443 6.682-85.35 19.072-124.8-106.624-164.275-146.432-304.742-88.883-362.291 57.6-57.574 198.17-17.843 362.496 88.858 39.373-12.339 81.203-19.021 124.595-19.021 230.118 0 417.254 187.187 417.254 417.28 0 43.392-6.656 85.197-18.995 124.57 106.701 164.378 146.355 304.896 88.806 362.496zM915.379 851.456c30.899-30.848 13.722-103.885-38.938-196.966-37.299 65.818-91.904 120.448-157.619 157.824 92.774 52.403 165.786 69.914 196.557 39.142zM513.434 770.483c138.47 0 256.333-88.243 301.286-211.354-50.202-70.17-114.458-146.074-189.619-221.21-75.213-75.213-151.142-139.469-221.286-189.696-123.085 44.954-211.328 162.867-211.328 301.312 0 176.947 143.949 320.947 320.947 320.947zM111.462 47.565c-30.797 30.746-13.286 103.782 39.168 196.531 37.35-65.715 91.981-120.346 157.773-157.619-93.056-52.685-166.067-69.811-196.941-38.912zM834.432 449.51c0-176.998-144-320.998-320.998-320.998-5.299 0-10.47 0.538-15.693 0.794 58.829 46.029 118.938 98.688 178.048 157.824s111.821 119.194 157.824 178.074c0.256-5.222 0.819-10.394 0.819-15.693z" />
<glyph unicode="&#xe944;" glyph-name="edit" d="M0-64v1024h640.768l-102.4-102.4h-435.968v-819.2h819.2v333.542l102.4 102.4v-538.342h-1024zM254.925 190.925l36.198 181.018 579.277 579.251 144.794-144.794-579.226-579.302-181.043-36.173z" />
<glyph unicode="&#xe945;" glyph-name="topic" d="M866.714-57.523c-7.552-4.301-15.974-6.477-24.422-6.477-8.371 0-16.64 2.048-24.166 6.298l-316.646 178.56-316.672-178.56c-15.053-8.525-33.587-8.371-48.589 0.179-15.002 8.602-24.243 24.422-24.243 41.574v912.896c0 35.328 29.107 64.051 64.896 64.051h649.19c35.763 0 64.922-28.723 64.922-64.051v-912.896c0.026-17.152-9.267-32.973-24.269-41.574zM793.626 864.922h-584.269v-798.106l267.955 151.117c7.501 4.25 15.821 6.323 24.166 6.323 8.32 0 16.691-2.074 24.141-6.323l267.981-151.117v798.106zM306.739 576.614h389.53v-96.102h-389.53v96.102zM306.739 768.819h389.53v-96.102h-389.53v96.102z" />
<glyph unicode="&#xe946;" glyph-name="school-time-table" d="M2.767 124.226h187.84v509.088h-187.84v-509.088zM2.767 2.113c0-35.196 25.876-63.735 61.068-63.735h65.706c35.195 0 61.067 28.539 61.067 63.735v58.401h-187.841v-58.401zM129.54 827.122h-65.706c-35.192 0-61.068-28.527-61.068-63.725v-65.709l187.84 1.995v63.714c0.001 35.197-25.871 63.725-61.066 63.725zM238.501 2.113c0-35.196 23.216-63.735 58.406-63.735h131.417c35.194 0 63.717 28.539 63.717 63.735v57.74h-253.54v-57.74zM238.501 126.882l253.539-0.66v636.513h-253.539v-635.853zM428.324 957.873h-131.417c-35.19 0-58.406-28.538-58.406-63.725v-66.368l253.539-1.995v68.363c0.001 35.187-28.522 63.725-63.716 63.725zM791.040 826.461h-192.483c-35.184 0-63.718-28.525-63.718-63.726v-762.617c0-35.2 28.533-63.726 63.718-63.726h192.483c35.194 0 63.719 28.525 63.719 63.726v762.617c0 35.201-28.525 63.726-63.719 63.726zM896.227 123.439l126.773-0.106-0.002 330.167-126.772-0.661 0.001-329.4zM896.227-2.539c0-35.196 21.894-61.068 57.083-61.068h9.955c35.192 0 59.735 28.525 59.735 63.726v86.715l-126.772 0.566-0.001-89.939zM963.263 637.292h-9.954c-35.189 0-57.083-31.183-57.083-66.368l-0.002-80.111h126.772l0.002 82.767c0.001 35.187-24.543 63.712-59.735 63.712z" />
<glyph unicode="&#xe947;" glyph-name="parent-service" d="M513.125 957.999c-282.147 0-510.873-228.727-510.873-510.874s228.726-510.874 510.873-510.874c282.148 0 510.875 228.727 510.875 510.874s-228.727 510.874-510.875 510.874zM832.469 354.434l-294.006-294.008c-6.768-6.766-15.764-10.493-25.336-10.493s-18.573 3.728-25.338 10.493l-294.002 294.008c-45.969 45.951-71.289 107.153-71.293 172.337 0 65.183 25.308 126.388 71.265 172.338 27.53 27.508 60.176 47.49 97.032 59.39 25.84 8.347 44.55 11.751 64.583 11.751 9.546 0 19.697-0.797 31.032-2.438 9.445-1.333 17.822-6.284 23.58-13.942 5.758-7.657 8.193-17.086 6.856-26.549-2.509-17.568-17.815-30.813-35.603-30.815-1.64 0-3.297 0.117-4.927 0.346-8.207 1.174-16.577 1.77-24.885 1.77-44.256 0-78.972-25.444-107.094-50.333-32.36-28.638-50.181-71.799-50.181-121.535 0-46.024 17.867-89.236 50.31-121.674l268.688-268.638 268.643 268.666c67.076 67.104 67.076 176.271 0 243.352-32.438 32.433-75.643 50.295-121.65 50.295-46.016 0-89.229-17.872-121.682-50.323l-146.514-146.515c-6.431-6.467-15.655-10.178-25.304-10.178-9.615 0-18.857 3.703-25.354 10.159-13.979 13.985-13.983 36.722-0.018 50.693l146.543 146.517c45.97 45.97 107.177 71.288 172.347 71.288 65.182 0 126.381-25.307 172.328-71.26 95.031-95.052 95.019-249.686-0.020-344.702z" />
<glyph unicode="&#xe948;" glyph-name="font-plugs" d="M1023 816.833h-140.49v140.482h-105.36v-140.482h-140.483v-105.371h140.482v-140.47h105.36v140.47h140.491v105.371zM516.833 814.018h-117.119l-396.998-878.018h140.481l134.147 316.083h367.623l130.403-316.083h140.475l-399.012 878.018zM322.029 357.444l141.71 333.962 137.782-333.962h-279.492zM984.052 807.671h-304.438v-83.034h304.438v83.034z" />
<glyph unicode="&#xe949;" glyph-name="font-minus" d="M516.833 814.018h-117.119l-396.998-878.018h140.481l134.147 316.083h367.623l130.403-316.083h140.475l-399.012 878.018zM322.029 357.444l141.71 333.962 137.782-333.962h-279.492zM984.052 807.671h-304.438v-83.034h304.438v83.034z" />
</font>
</defs>
</svg>
